<svg viewBox="0 0 24 24" fill="none" xmlns="http://www.w3.org/2000/svg" stroke="currentColor"><path d="M10 17H16V6C16 4.89543 15.1046 4 14 4H4C2.89543 4 2 4.89543 2 6V16C2 16.5523 2.44772 17 3 17H4" stroke-linecap="round" stroke-linejoin="round" style="stroke-width:var(--ng-icon__stroke-width, 2)"></path><path d="M22 16V12C22 9.79086 20.2091 8 18 8H16V17H21C21.5523 17 22 16.5523 22 16Z" stroke-linecap="round" stroke-linejoin="round" style="stroke-width:var(--ng-icon__stroke-width, 2)"></path><path d="M15 17C15 18.6569 16.3431 20 18 20C19.6569 20 21 18.6569 21 17H15Z" stroke-linecap="round" stroke-linejoin="round" style="stroke-width:var(--ng-icon__stroke-width, 2)"></path><path d="M22 14L20 14" stroke-linecap="round" stroke-linejoin="round" style="stroke-width:var(--ng-icon__stroke-width, 2)"></path><circle cx="7" cy="17" r="3" stroke-linecap="round" stroke-linejoin="round" style="stroke-width:var(--ng-icon__stroke-width, 2)"></circle></svg>