<?xml version="1.0" encoding="utf-8"?><svg version="1.1" id="ID_PLACEHOLDER_0" xmlns="http://www.w3.org/2000/svg" xmlns:xlink="http://www.w3.org/1999/xlink" x="0px" y="0px" viewBox="0 0 24 24" style="enable-background:new 0 0 24 24;" xml:space="preserve" fill="currentColor"><g id="ID_PLACEHOLDER_1"><g id="ID_PLACEHOLDER_2"><path d="M14,24h-3.1C8.7,24,7,22.2,7,20v-5H0V4c0-2.2,1.8-4,4-4h20v14h-8c-1.1,0-2,0.8-2,1.9V24z M2,13h7v7c0,1.1,0.8,2,1.9,2H12
			v-6.1c0-2.2,1.8-3.9,4-3.9V2H4C2.9,2,2,2.9,2,4V13z M18,12h4V2h-4V12z"></path></g></g></svg>