<?xml version="1.0" encoding="utf-8"?><svg version="1.1" id="ID_PLACEHOLDER_0" xmlns="http://www.w3.org/2000/svg" xmlns:xlink="http://www.w3.org/1999/xlink" x="0px" y="0px" viewBox="0 0 24 24" style="enable-background:new 0 0 24 24;" xml:space="preserve" fill="currentColor"><g id="ID_PLACEHOLDER_1"><g><polygon points="24,24 4,24 4,22 22,22 22,6.4 17.6,2 6,2 6,9 4,9 4,0 18.4,0 24,5.6 		"></polygon></g><g><polygon points="23,8 16,8 16,2 18,2 18,6 23,6 		"></polygon></g><g><rect y="13" width="2" height="7"></rect></g><g><path d="M3,18H0v-6h3c1.7,0,3,1.3,3,3S4.7,18,3,18z M2,16h1c0.6,0,1-0.4,1-1s-0.4-1-1-1H2V16z"></path></g><g><polygon points="4.2,20 1.5,16.3 3.7,16.3 6.5,20 		"></polygon></g><g><rect x="6.6" y="12" width="6" height="2"></rect></g><g><rect x="8.6" y="12" width="2" height="8"></rect></g><g><rect x="13.6" y="12" width="6" height="2"></rect></g><g><rect x="13.6" y="12" width="2" height="8"></rect></g><g><rect x="13.6" y="16" width="5" height="2"></rect></g></g></svg>