<?xml version="1.0" encoding="utf-8"?><svg version="1.1" id="ID_PLACEHOLDER_0" xmlns="http://www.w3.org/2000/svg" xmlns:xlink="http://www.w3.org/1999/xlink" x="0px" y="0px" viewBox="0 0 24 24" style="enable-background:new 0 0 24 24;" xml:space="preserve" fill="currentColor"><g id="ID_PLACEHOLDER_1"><g><rect x="18" y="4" width="2" height="2"></rect></g><g><rect x="18" y="10" width="2" height="2"></rect></g><g><rect x="18" y="16" width="2" height="2"></rect></g><g><path d="M24,23h-2v-2H2v2H0V1h24V23z M2,19h20v-4H2V19z M2,13h20V9H2V13z M2,7h20V3H2V7z M17,18H4v-2h13V18z M17,12H4v-2h13V12z
			 M17,6H4V4h13V6z"></path></g></g></svg>