<?xml version="1.0" encoding="utf-8"?><svg version="1.1" id="ID_PLACEHOLDER_0" xmlns="http://www.w3.org/2000/svg" xmlns:xlink="http://www.w3.org/1999/xlink" x="0px" y="0px" viewBox="0 0 24 24" style="enable-background:new 0 0 24 24;" xml:space="preserve" fill="currentColor"><g id="ID_PLACEHOLDER_1"><g><polygon points="23,24 3,24 3,22 21,22 21,6.4 16.6,2 5,2 5,9 3,9 3,0 17.4,0 23,5.6 		"></polygon></g><g><polygon points="22,8 15,8 15,2 17,2 17,6 22,6 		"></polygon></g><g><path d="M1.9,15.5L1.9,15.5c0-2.7,1.7-4.8,4.1-4.8s4.1,2.1,4.1,4.7l0,0c0,2.7-1.6,4.8-4.1,4.8C3.6,20.2,1.9,18.1,1.9,15.5z
			 M8,15.5L8,15.5c0-1.7-0.8-3-2-3s-2,1.2-2,2.9l0,0c0,1.7,0.8,2.9,2,2.9S8,17.1,8,15.5z"></path></g></g></svg>