<svg xmlns="http://www.w3.org/2000/svg" viewBox="0 0 24 24"><mask id="ID_PLACEHOLDER_0" width="4" height="3" x="7" y="9" fill="#000" maskUnits="userSpaceOnUse"><path fill="#fff" d="M7 9h4v3H7z"></path><path d="M9.5 10c.24 0 .36 0 .433.123c.073.122.03.2-.055.356a1 1 0 0 1-1.756 0c-.085-.156-.128-.234-.055-.356C8.14 10 8.26 10 8.5 10H9z"></path></mask><mask id="ID_PLACEHOLDER_1" width="4" height="3" x="13" y="9" fill="#000" maskUnits="userSpaceOnUse"><path fill="#fff" d="M13 9h4v3h-4z"></path><path d="M15.5 10c.24 0 .36 0 .433.123c.073.122.03.2-.055.356a1 1 0 0 1-1.756 0c-.085-.156-.128-.234-.055-.356C14.14 10 14.26 10 14.5 10h.5z"></path></mask><g fill="none"><circle cx="12" cy="12" r="10" stroke="currentColor" stroke-linecap="round"></circle><path stroke="currentColor" stroke-linecap="round" d="M8.324 16.273c.418-.09.976-.158 1.604-.203c.635-.046 1.35-.07 2.072-.07c.723 0 1.437.024 2.072.07c.628.045 1.186.112 1.604.203"></path><path fill="currentColor" d="M9.5 10c.24 0 .36 0 .433.123c.073.122.03.2-.055.356a1 1 0 0 1-1.756 0c-.085-.156-.128-.234-.055-.356C8.14 10 8.26 10 8.5 10H9z"></path><path stroke="currentColor" stroke-linecap="round" d="M9.5 10c.24 0 .36 0 .433.123c.073.122.03.2-.055.356a1 1 0 0 1-1.756 0c-.085-.156-.128-.234-.055-.356C8.14 10 8.26 10 8.5 10H9z" mask="url(#ID_PLACEHOLDER_0)"></path><path fill="currentColor" d="M15.5 10c.24 0 .36 0 .433.123c.073.122.03.2-.055.356a1 1 0 0 1-1.756 0c-.085-.156-.128-.234-.055-.356C14.14 10 14.26 10 14.5 10h.5z"></path><path stroke="currentColor" stroke-linecap="round" d="M15.5 10c.24 0 .36 0 .433.123c.073.122.03.2-.055.356a1 1 0 0 1-1.756 0c-.085-.156-.128-.234-.055-.356C14.14 10 14.26 10 14.5 10h.5z" mask="url(#ID_PLACEHOLDER_1)"></path></g></svg>