<svg xmlns="http://www.w3.org/2000/svg" fill="none" viewBox="0 0 24 24"><g id="ID_PLACEHOLDER_0"><path id="ID_PLACEHOLDER_1" fill="transparent" d="M3 3L21 3L21 21L3 21L3 3Z"></path><g id="ID_PLACEHOLDER_2"><path fill="transparent" d="M15.5 9.5C15.5 11.433 13.933 13 12 13C10.067 13 8.5 11.433 8.5 9.5C8.5 7.567 10.067 6 12 6C13.933 6 15.5 7.567 15.5 9.5Z"></path><path fill="transparent" d="M5.5 20C5.5 17.7909 7.29086 16 9.5 16H14.5C16.7091 16 18.5 17.7909 18.5 20V21H5.5V20Z"></path></g><g id="ID_PLACEHOLDER_3"><path stroke="currentColor" d="M15.5 9.5C15.5 11.433 13.933 13 12 13C10.067 13 8.5 11.433 8.5 9.5C8.5 7.567 10.067 6 12 6C13.933 6 15.5 7.567 15.5 9.5Z" stroke-linecap="square" style="stroke-width:var(--ng-icon__stroke-width, 2)"></path><path stroke="currentColor" d="M5.5 20C5.5 17.7909 7.29086 16 9.5 16H14.5C16.7091 16 18.5 17.7909 18.5 20V21H5.5V20Z" stroke-linecap="square" style="stroke-width:var(--ng-icon__stroke-width, 2)"></path></g><path id="ID_PLACEHOLDER_4" stroke="currentColor" d="M3 3L21 3L21 21L3 21L3 3Z" stroke-linecap="square" style="stroke-width:var(--ng-icon__stroke-width, 2)"></path></g></svg>