<svg xmlns="http://www.w3.org/2000/svg" fill="none" viewBox="0 0 24 24"><g id="ID_PLACEHOLDER_0"><path id="ID_PLACEHOLDER_1" fill="transparent" d="M21 5.5V21H3V5.5L6 3L9 5.5V10H15V5.5L18 3L21 5.5Z"></path><path id="ID_PLACEHOLDER_2" fill="transparent" d="M10 21V17C10 15.8954 10.8954 15 12 15C13.1046 15 14 15.8954 14 17V21H10Z"></path><path id="ID_PLACEHOLDER_3" stroke="currentColor" d="M10 21V17C10 15.8954 10.8954 15 12 15C13.1046 15 14 15.8954 14 17V21H10Z" stroke-linecap="square" style="stroke-width:var(--ng-icon__stroke-width, 2)"></path><path id="ID_PLACEHOLDER_4" stroke="currentColor" d="M3 10V21H21V10M3 10V5.5L6 3L9 5.5V10M3 10H9M21 10V5.5L18 3L15 5.5V10M21 10H15M9 10H15" stroke-linecap="square" style="stroke-width:var(--ng-icon__stroke-width, 2)"></path></g></svg>