<svg xmlns="http://www.w3.org/2000/svg" fill="none" viewBox="0 0 24 24"><g id="ID_PLACEHOLDER_0"><path id="ID_PLACEHOLDER_1" fill="transparent" d="M11.878 22.0207L1.97852 12.1212L11.878 2.22168L21.0704 2.92879L21.7775 12.1212L11.878 22.0207Z"></path><path id="ID_PLACEHOLDER_2" fill="transparent" d="M13.9998 7.17075C14.7809 6.3897 16.0472 6.3897 16.8283 7.17075C17.6093 7.9518 17.6093 9.21813 16.8283 9.99917C16.0472 10.7802 14.7809 10.7802 13.9998 9.99917C13.2188 9.21813 13.2188 7.9518 13.9998 7.17075Z"></path><path id="ID_PLACEHOLDER_3" stroke="currentColor" d="M11.878 22.0207L1.97852 12.1212L11.878 2.22168L21.0704 2.92879L21.7775 12.1212L11.878 22.0207Z" style="stroke-width:var(--ng-icon__stroke-width, 2)"></path><path id="ID_PLACEHOLDER_4" stroke="currentColor" d="M13.9998 7.17075C14.7809 6.3897 16.0472 6.3897 16.8283 7.17075C17.6093 7.9518 17.6093 9.21813 16.8283 9.99917C16.0472 10.7802 14.7809 10.7802 13.9998 9.99917C13.2188 9.21813 13.2188 7.9518 13.9998 7.17075Z" style="stroke-width:var(--ng-icon__stroke-width, 2)"></path></g></svg>