<svg xmlns="http://www.w3.org/2000/svg" fill="none" viewBox="0 0 24 24"><g id="ID_PLACEHOLDER_0"><path id="ID_PLACEHOLDER_1" fill="transparent" d="M3 3H21V21H3V3Z"></path><path id="ID_PLACEHOLDER_2" fill="transparent" d="M17 12C17 14.7614 14.7614 17 12 17C9.23858 17 7 14.7614 7 12C7 9.23858 9.23858 7 12 7C14.7614 7 17 9.23858 17 12Z"></path><path id="ID_PLACEHOLDER_3" stroke="currentColor" d="M3 3H21V21H3V3Z" style="stroke-width:var(--ng-icon__stroke-width, 2)"></path><g id="ID_PLACEHOLDER_4"><path stroke="currentColor" d="M17 12C17 14.7614 14.7614 17 12 17C9.23858 17 7 14.7614 7 12C7 9.23858 9.23858 7 12 7C14.7614 7 17 9.23858 17 12Z" style="stroke-width:var(--ng-icon__stroke-width, 2)"></path><path stroke="currentColor" d="M13 12C13 12.5523 12.5523 13 12 13C11.4477 13 11 12.5523 11 12C11 11.4477 11.4477 11 12 11C12.5523 11 13 11.4477 13 12Z" style="stroke-width:var(--ng-icon__stroke-width, 2)"></path></g></g></svg>