<svg xmlns="http://www.w3.org/2000/svg" fill="none" viewBox="0 0 24 24"><g id="ID_PLACEHOLDER_0"><path id="ID_PLACEHOLDER_1" fill="transparent" d="M17 21V11H7V21H17Z"></path><g id="ID_PLACEHOLDER_2"><path fill="transparent" d="M3 21H7V11H9V4H3V21Z"></path><path fill="transparent" d="M21 21V4H15V11H17V21H21Z"></path></g><path id="ID_PLACEHOLDER_3" stroke="currentColor" d="M9 4H3M9 4V11H7V21H3V4M9 4V3M3 4V3M21 4V21H17V11H15V4M21 4H15M21 4V3M15 4V3M12 21V16" stroke-linecap="square" style="stroke-width:var(--ng-icon__stroke-width, 2)"></path><path id="ID_PLACEHOLDER_4" stroke="currentColor" d="M17 21V11H7V21H17Z" stroke-linecap="square" style="stroke-width:var(--ng-icon__stroke-width, 2)"></path></g></svg>