<svg xmlns="http://www.w3.org/2000/svg" fill="none" viewBox="0 0 24 24"><g id="ID_PLACEHOLDER_0"><path id="ID_PLACEHOLDER_1" fill="transparent" d="M22 5V8.83682C20.8175 9.39855 20 10.6038 20 12C20 13.3962 20.8175 14.6015 22 15.1632V19L2 19V15.1632C3.18247 14.6015 4 13.3962 4 12C4 10.6038 3.18247 9.39855 2 8.83682V5H22Z"></path><path id="ID_PLACEHOLDER_2" stroke="currentColor" d="M22 5V8.83682C20.8175 9.39855 20 10.6038 20 12C20 13.3962 20.8175 14.6015 22 15.1632V19L2 19V15.1632C3.18247 14.6015 4 13.3962 4 12C4 10.6038 3.18247 9.39855 2 8.83682V5H22Z" style="stroke-width:var(--ng-icon__stroke-width, 2)"></path><path id="ID_PLACEHOLDER_3" stroke="currentColor" d="M9 10H15M9 14H15" stroke-linecap="square" style="stroke-width:var(--ng-icon__stroke-width, 2)"></path></g></svg>