<svg xmlns="http://www.w3.org/2000/svg" fill="none" viewBox="0 0 24 24"><g id="ID_PLACEHOLDER_0"><path id="ID_PLACEHOLDER_1" fill="transparent" d="M22.25 16.75C22.25 20.0035 18.5 22.5 18.5 22.5C18.5 22.5 14.75 20.0035 14.75 16.75C14.75 14.6789 16.4289 13 18.5 13C20.5711 13 22.25 14.6789 22.25 16.75Z"></path><path id="ID_PLACEHOLDER_2" stroke="currentColor" d="M22 10V3H2V17H11M4 21H11" stroke-linecap="square" style="stroke-width:var(--ng-icon__stroke-width, 2)"></path><path id="ID_PLACEHOLDER_3" stroke="currentColor" d="M18.25 17H18.75M22.25 16.75C22.25 20.0035 18.5 22.5 18.5 22.5C18.5 22.5 14.75 20.0035 14.75 16.75C14.75 14.6789 16.4289 13 18.5 13C20.5711 13 22.25 14.6789 22.25 16.75Z" stroke-linecap="square" style="stroke-width:var(--ng-icon__stroke-width, 2)"></path></g></svg>