<svg xmlns="http://www.w3.org/2000/svg" fill="none" viewBox="0 0 24 24"><g id="ID_PLACEHOLDER_0"><g id="ID_PLACEHOLDER_1"><path fill="transparent" d="M12 3L16.3302 9.75H7.66992L12 3Z"></path><path fill="transparent" d="M3 14H10V21H3V14Z"></path><path fill="transparent" d="M21 17.5C21 19.433 19.433 21 17.5 21C15.567 21 14 19.433 14 17.5C14 15.567 15.567 14 17.5 14C19.433 14 21 15.567 21 17.5Z"></path></g><g id="ID_PLACEHOLDER_2"><path stroke="currentColor" d="M12 3L16.3302 9.75H7.66992L12 3Z" stroke-linecap="square" style="stroke-width:var(--ng-icon__stroke-width, 2)"></path><path stroke="currentColor" d="M3 14H10V21H3V14Z" stroke-linecap="square" style="stroke-width:var(--ng-icon__stroke-width, 2)"></path><path stroke="currentColor" d="M21 17.5C21 19.433 19.433 21 17.5 21C15.567 21 14 19.433 14 17.5C14 15.567 15.567 14 17.5 14C19.433 14 21 15.567 21 17.5Z" stroke-linecap="square" style="stroke-width:var(--ng-icon__stroke-width, 2)"></path></g></g></svg>