<svg xmlns="http://www.w3.org/2000/svg" fill="none" viewBox="0 0 24 24"><g id="ID_PLACEHOLDER_0"><path id="ID_PLACEHOLDER_1" fill="transparent" d="M3 9L21 9L21 21L3 21C3 17 3 13 3 9Z"></path><path id="ID_PLACEHOLDER_2" fill="transparent" d="M3 3L21 3V9L3 9C3 7 3 5 3 3Z"></path><path id="ID_PLACEHOLDER_3" stroke="currentColor" d="M3 3H21M3 3C3 9 3 15 3 21H21V3M3 3C3 5 3 7 3 9H21V3M6.41667 3.5L10.5833 8.5M13.4167 3.5L17.5833 8.5" stroke-linecap="square" style="stroke-width:var(--ng-icon__stroke-width, 2)"></path><path id="ID_PLACEHOLDER_4" stroke="currentColor" d="M10 13H14" stroke-linecap="square" style="stroke-width:var(--ng-icon__stroke-width, 2)"></path></g></svg>