<svg xmlns="http://www.w3.org/2000/svg" fill="none" viewBox="0 0 24 24"><g id="ID_PLACEHOLDER_0"><g id="ID_PLACEHOLDER_1"><path fill="transparent" d="M2 3H9C10.6569 3 12 4.34315 12 6V21H11C11 21 8 20 2 20V3Z"></path><path fill="transparent" d="M22 3H15C13.3431 3 12 4.34315 12 6V21H13C13 21 16 20 22 20V3Z"></path></g><path id="ID_PLACEHOLDER_2" stroke="currentColor" d="M12 21V6M12 21H11C11 21 8 20 2 20V3H9C10.6569 3 12 4.34315 12 6M12 21H13C13 21 16 20 22 20V3H15C13.3431 3 12 4.34315 12 6" style="stroke-width:var(--ng-icon__stroke-width, 2)"></path><path id="ID_PLACEHOLDER_3" stroke="currentColor" d="M15 10.5C15 9.39543 15.8954 8.5 17 8.5C18.1046 8.5 19 9.39543 19 10.5C19 12.5 17.0034 12.5278 17.0034 12.75M17 15.5H17.0039V15.5039H17V15.5Z" stroke-linecap="square" style="stroke-width:var(--ng-icon__stroke-width, 2)"></path></g></svg>