<svg xmlns="http://www.w3.org/2000/svg" fill="none" viewBox="0 0 24 24"><g id="ID_PLACEHOLDER_0"><path id="ID_PLACEHOLDER_1" fill="transparent" d="M21 3H3V21H21V3Z"></path><g id="ID_PLACEHOLDER_2"><path fill="transparent" d="M18 7.5C18 8.71875 16.5 9.75 16.5 9.75C16.5 9.75 15 8.71861 15 7.5C15 6.67157 15.6716 6 16.5 6C17.3284 6 18 6.67157 18 7.5Z"></path><path fill="transparent" d="M10 10.5C10 11.7188 8.5 12.75 8.5 12.75C8.5 12.75 7 11.7186 7 10.5C7 9.67157 7.67157 9 8.5 9C9.32843 9 10 9.67157 10 10.5Z"></path></g><path id="ID_PLACEHOLDER_3" stroke="currentColor" d="M21 3H3V21H21V3Z" stroke-linecap="square" style="stroke-width:var(--ng-icon__stroke-width, 2)"></path><path id="ID_PLACEHOLDER_4" stroke="currentColor" d="M14.5 14.5L18.5 13M6.5 17.5L10.5 16M18 7.5C18 8.71875 16.5 9.75 16.5 9.75C16.5 9.75 15 8.71861 15 7.5C15 6.67157 15.6716 6 16.5 6C17.3284 6 18 6.67157 18 7.5ZM10 10.5C10 11.7188 8.5 12.75 8.5 12.75C8.5 12.75 7 11.7186 7 10.5C7 9.67157 7.67157 9 8.5 9C9.32843 9 10 9.67157 10 10.5Z" stroke-linecap="square" style="stroke-width:var(--ng-icon__stroke-width, 2)"></path></g></svg>