<svg xmlns="http://www.w3.org/2000/svg" fill="none" viewBox="0 0 24 24"><g id="ID_PLACEHOLDER_0"><path id="ID_PLACEHOLDER_1" fill="transparent" d="M5 7C5 5.89543 5.89543 5 7 5H17C18.1046 5 19 5.89543 19 7V17C19 18.1046 18.1046 19 17 19H7C5.89543 19 5 18.1046 5 17V7Z"></path><g id="ID_PLACEHOLDER_2"><path fill="transparent" d="M8 1H16L16.5 5H7.5L8 1Z"></path><path fill="transparent" d="M7.5 19H16.5L16 23H8L7.5 19Z"></path></g><g id="ID_PLACEHOLDER_3"><path stroke="currentColor" d="M8 1H16L16.5 5H7.5L8 1Z" stroke-linecap="square" style="stroke-width:var(--ng-icon__stroke-width, 2)"></path><path stroke="currentColor" d="M7.5 19H16.5L16 23H8L7.5 19Z" stroke-linecap="square" style="stroke-width:var(--ng-icon__stroke-width, 2)"></path></g><path id="ID_PLACEHOLDER_4" stroke="currentColor" d="M20 10V14M7 19H17C18.1046 19 19 18.1046 19 17V7C19 5.89543 18.1046 5 17 5H7C5.89543 5 5 5.89543 5 7V17C5 18.1046 5.89543 19 7 19Z" stroke-linecap="square" style="stroke-width:var(--ng-icon__stroke-width, 2)"></path></g></svg>