<svg xmlns="http://www.w3.org/2000/svg" fill="none" viewBox="0 0 24 24"><g id="ID_PLACEHOLDER_0"><path id="ID_PLACEHOLDER_1" fill="transparent" d="M12 22C17.5228 22 22 17.5228 22 12C22 6.47715 17.5228 2 12 2C6.47715 2 2 6.47715 2 12C2 14.6624 3.04042 17.0817 4.73686 18.8737L3 22H12Z"></path><path id="ID_PLACEHOLDER_2" fill="transparent" d="M8.49805 11.5H15.498V16H8.49805V11.5Z"></path><path id="ID_PLACEHOLDER_3" stroke="currentColor" d="M12 22C17.5228 22 22 17.5228 22 12C22 6.47715 17.5228 2 12 2C6.47715 2 2 6.47715 2 12C2 14.6624 3.04042 17.0817 4.73686 18.8737L3 22H12Z" stroke-linecap="square" style="stroke-width:var(--ng-icon__stroke-width, 2)"></path><path id="ID_PLACEHOLDER_4" stroke="currentColor" d="M9.74951 11.5V9.75C9.74951 8.50736 10.7569 7.5 11.9995 7.5C13.2422 7.5 14.2495 8.50736 14.2495 9.75V11.5M8.49805 11.5H15.498V16H8.49805V11.5Z" stroke-linecap="square" style="stroke-width:var(--ng-icon__stroke-width, 2)"></path></g></svg>