<svg xmlns="http://www.w3.org/2000/svg" fill="none" viewBox="0 0 24 24"><g id="ID_PLACEHOLDER_0"><path id="ID_PLACEHOLDER_1" fill="transparent" d="M12 2C6.47715 2 2 6.47715 2 12C2 17.5228 6.47715 22 12 22C17.5228 22 22 17.5228 22 12C22 6.47715 17.5228 2 12 2Z"></path><path id="ID_PLACEHOLDER_2" stroke="currentColor" d="M12 2C6.47715 2 2 6.47715 2 12C2 17.5228 6.47715 22 12 22C17.5228 22 22 17.5228 22 12C22 6.47715 17.5228 2 12 2Z" stroke-linecap="square" style="stroke-width:var(--ng-icon__stroke-width, 2)"></path><g id="ID_PLACEHOLDER_3"><path stroke="currentColor" d="M7 12L7.00391 12L7.00391 12.0039L7 12.0039L7 12Z" stroke-linecap="square" style="stroke-width:var(--ng-icon__stroke-width, 2)"></path><path stroke="currentColor" d="M12 12L12.0039 12V12.0039L12 12.0039V12Z" stroke-linecap="square" style="stroke-width:var(--ng-icon__stroke-width, 2)"></path><path stroke="currentColor" d="M17 12L17.0039 12V12.0039L17 12.0039V12Z" stroke-linecap="square" style="stroke-width:var(--ng-icon__stroke-width, 2)"></path></g></g></svg>