<svg xmlns="http://www.w3.org/2000/svg" fill="none" viewBox="0 0 24 24"><g id="ID_PLACEHOLDER_0"><path id="ID_PLACEHOLDER_1" fill="transparent" d="M3 7L21 7L21 21L3 21L3 7Z"></path><path id="ID_PLACEHOLDER_2" fill="transparent" d="M21 3H3V7H21V3Z"></path><path id="ID_PLACEHOLDER_3" stroke="currentColor" d="M3 21H9M3 21H21M3 21V7M9 21H15M9 21V14M15 21H21M15 21V14M21 21V7M21 7H15M21 7V3H3V7M21 7H3M15 7H9M15 7V14M9 7H3M9 7V14M3 14H9M9 14H15M15 14H21" stroke-linecap="square" style="stroke-width:var(--ng-icon__stroke-width, 2)"></path></g></svg>