<svg xmlns="http://www.w3.org/2000/svg" fill="none" viewBox="0 0 24 24"><g id="ID_PLACEHOLDER_0"><path id="ID_PLACEHOLDER_1" fill="transparent" d="M20 22L4 22L4 2L20 2L20 22Z"></path><path id="ID_PLACEHOLDER_2" fill="transparent" d="M8 14C8 11.7909 9.79086 10 12 10C14.2091 10 16 11.7909 16 14C16 16.2091 14.2091 18 12 18C9.79086 18 8 16.2091 8 14Z"></path><path id="ID_PLACEHOLDER_3" stroke="currentColor" d="M20 22L4 22L4 2L20 2L20 22Z" style="stroke-width:var(--ng-icon__stroke-width, 2)"></path><g id="ID_PLACEHOLDER_4"><path stroke="currentColor" d="M8 14C8 11.7909 9.79086 10 12 10C14.2091 10 16 11.7909 16 14C16 16.2091 14.2091 18 12 18C9.79086 18 8 16.2091 8 14Z" style="stroke-width:var(--ng-icon__stroke-width, 2)"></path><path stroke="currentColor" d="M12 6H11.9961V5.99609H12V6Z" style="stroke-width:var(--ng-icon__stroke-width, 2)"></path></g></g></svg>