<svg xmlns="http://www.w3.org/2000/svg" fill="none" viewBox="0 0 24 24"><g id="ID_PLACEHOLDER_0"><path id="ID_PLACEHOLDER_1" fill="transparent" d="M18 12.5L19.587 14.8157L22.2797 15.6094L20.5678 17.8343L20.645 20.6406L18 19.7L15.3549 20.6406L15.4321 17.8343L13.7202 15.6094L16.4129 14.8157L18 12.5Z"></path><path id="ID_PLACEHOLDER_2" stroke="currentColor" d="M15 6.5L9 3L3 6.5V20L9 17.5M15 6.5L21 4V9.5M15 6.5V9.5M9 17.5V3.5M9 17.5L10.5 18.375" stroke-linecap="square" style="stroke-width:var(--ng-icon__stroke-width, 2)"></path><path id="ID_PLACEHOLDER_3" stroke="currentColor" d="M18 12.5L19.587 14.8157L22.2797 15.6094L20.5678 17.8343L20.645 20.6406L18 19.7L15.3549 20.6406L15.4321 17.8343L13.7202 15.6094L16.4129 14.8157L18 12.5Z" style="stroke-width:var(--ng-icon__stroke-width, 2)"></path></g></svg>