<svg xmlns="http://www.w3.org/2000/svg" fill="none" viewBox="0 0 24 24"><g id="ID_PLACEHOLDER_0"><path id="ID_PLACEHOLDER_1" fill="transparent" d="M12 2C6.47715 2 2 6.47715 2 12C2 17.5229 6.47715 22 12 22C17.5228 22 22 17.5229 22 12C22 6.47715 17.5228 2 12 2Z"></path><path id="ID_PLACEHOLDER_2" fill="transparent" d="M11.4987 21.9877C11.6646 21.9959 11.8315 22 11.9994 22C12.1673 22 12.3342 21.9959 12.5 21.9877C17.113 16.2216 17.1129 7.77835 12.4999 2.01231C12.3341 2.00414 12.1672 2 11.9994 2C11.8315 2 11.6646 2.00414 11.4988 2.01231C6.88584 7.77835 6.88581 16.2216 11.4987 21.9877Z"></path><path id="ID_PLACEHOLDER_3" stroke="currentColor" d="M3 12H21M2 12C2 6.47715 6.47715 2 12 2C17.5228 2 22 6.47715 22 12C22 17.5229 17.5228 22 12 22C6.47715 22 2 17.5229 2 12Z" stroke-linecap="square" style="stroke-width:var(--ng-icon__stroke-width, 2)"></path><path id="ID_PLACEHOLDER_4" stroke="currentColor" d="M11.4987 21.9877C11.6646 21.9959 11.8315 22 11.9994 22C12.1673 22 12.3342 21.9959 12.5 21.9877C17.113 16.2216 17.1129 7.77835 12.4999 2.01231C12.3341 2.00414 12.1672 2 11.9994 2C11.8315 2 11.6646 2.00414 11.4988 2.01231C6.88584 7.77835 6.88581 16.2216 11.4987 21.9877Z" stroke-linecap="square" style="stroke-width:var(--ng-icon__stroke-width, 2)"></path></g></svg>