<svg xmlns="http://www.w3.org/2000/svg" fill="none" viewBox="0 0 24 24"><g id="ID_PLACEHOLDER_0"><path id="ID_PLACEHOLDER_1" fill="transparent" d="M3 14.5C3 18.0899 5.91015 21 9.5 21C13.0899 21 16 18.0899 16 14.5C16 10.9101 13.0899 8 9.5 8C5.91015 8 3 10.9101 3 14.5Z"></path><path id="ID_PLACEHOLDER_2" fill="transparent" d="M9 3H21V15H16C16 10.8955 13.1045 8 9 8V3Z"></path><path id="ID_PLACEHOLDER_3" stroke="currentColor" d="M9 8V3H21V15H16" style="stroke-width:var(--ng-icon__stroke-width, 2)"></path><path id="ID_PLACEHOLDER_4" stroke="currentColor" d="M3 14.5C3 18.0899 5.91015 21 9.5 21C13.0899 21 16 18.0899 16 14.5C16 10.9101 13.0899 8 9.5 8C5.91015 8 3 10.9101 3 14.5Z" style="stroke-width:var(--ng-icon__stroke-width, 2)"></path></g></svg>