<svg xmlns="http://www.w3.org/2000/svg" fill="none" viewBox="0 0 24 24"><g id="ID_PLACEHOLDER_0"><g id="ID_PLACEHOLDER_1"><path fill="transparent" d="M4 10C4 5.58172 7.58173 3 12 3C16.4183 3 20 5.58172 20 10H4Z"></path><path fill="transparent" d="M4 18H20C20 20.2091 18.2091 22 16 22H8C5.79086 22 4 20.2091 4 18Z"></path></g><g id="ID_PLACEHOLDER_2"><path stroke="currentColor" d="M4 10C4 5.58172 7.58173 3 12 3C16.4183 3 20 5.58172 20 10H4Z" stroke-linecap="square" style="stroke-width:var(--ng-icon__stroke-width, 2)"></path><path stroke="currentColor" d="M4 18H20C20 20.2091 18.2091 22 16 22H8C5.79086 22 4 20.2091 4 18Z" stroke-linecap="square" style="stroke-width:var(--ng-icon__stroke-width, 2)"></path></g><path id="ID_PLACEHOLDER_3" stroke="currentColor" d="M3 15L6 13L9 15L12 13L15 15L18 13L21 15" stroke-linecap="square" style="stroke-width:var(--ng-icon__stroke-width, 2)"></path></g></svg>