<svg xmlns="http://www.w3.org/2000/svg" fill="none" viewBox="0 0 24 24"><g id="ID_PLACEHOLDER_0"><path id="ID_PLACEHOLDER_1" fill="transparent" d="M12 3C14.7614 3 17 5.23858 17 8V9H21V21H3V9H7V8C7 5.23858 9.23858 3 12 3Z"></path><path id="ID_PLACEHOLDER_2" fill="transparent" d="M18 13C19.6569 13 21 14.3431 21 16V21H3V16C3 14.3431 4.34315 13 6 13C7.65685 13 9 14.3431 9 16C9 14.3431 10.3431 13 12 13C13.6569 13 15 14.3431 15 16C15 14.3431 16.3431 13 18 13Z"></path><path id="ID_PLACEHOLDER_3" stroke="currentColor" d="M9 21V16M9 21H3V16C3 14.3431 4.34315 13 6 13C7.65685 13 9 14.3431 9 16M9 21H15M9 16C9 14.3431 10.3431 13 12 13C13.6569 13 15 14.3431 15 16M15 21V16M15 21H21V16C21 14.3431 19.6569 13 18 13C16.3431 13 15 14.3431 15 16" stroke-linecap="square" style="stroke-width:var(--ng-icon__stroke-width, 2)"></path><path id="ID_PLACEHOLDER_4" stroke="currentColor" d="M12 3C14.7614 3 17 5.23858 17 8V9H7V8C7 5.23858 9.23858 3 12 3ZM12 3V2M3 9H21V21H3V9Z" stroke-linecap="square" style="stroke-width:var(--ng-icon__stroke-width, 2)"></path></g></svg>