<svg xmlns="http://www.w3.org/2000/svg" fill="none" viewBox="0 0 24 24"><g id="ID_PLACEHOLDER_0"><path id="ID_PLACEHOLDER_1" fill="transparent" d="M17 9H20V21H4V9H7V3H17V9Z"></path><path id="ID_PLACEHOLDER_2" fill="transparent" d="M9 21V14H15V21H9Z"></path><g id="ID_PLACEHOLDER_3"><path stroke="currentColor" d="M11.998 5.99805H12.002V6.00195H11.998V5.99805Z" stroke-linecap="square" style="stroke-width:var(--ng-icon__stroke-width, 2)"></path><path stroke="currentColor" d="M9 21V14H15V21H9Z" stroke-linecap="square" style="stroke-width:var(--ng-icon__stroke-width, 2)"></path></g><path id="ID_PLACEHOLDER_4" stroke="currentColor" d="M6 3H7M7 3V9H17V3M7 3H17M17 3H18M3 9H4M4 9V21M4 9H20M4 21H3M4 21H20M20 9V21M20 9H21M20 21H21" stroke-linecap="square" style="stroke-width:var(--ng-icon__stroke-width, 2)"></path></g></svg>