<svg xmlns="http://www.w3.org/2000/svg" fill="none" viewBox="0 0 24 24"><g id="ID_PLACEHOLDER_0"><path id="ID_PLACEHOLDER_1" fill="transparent" d="M4 3H20V21H15V15C15 13.3431 13.6569 12 12 12V12C10.3431 12 9 13.3431 9 15V21H4V3Z"></path><path id="ID_PLACEHOLDER_2" stroke="currentColor" d="M4 21H3M4 21H9M4 21V3H20V21M20 21H21M20 21H15M9 21H10M9 21V15C9 13.3431 10.3431 12 12 12V12C13.6569 12 15 13.3431 15 15V21M14 21H15" stroke-linecap="square" style="stroke-width:var(--ng-icon__stroke-width, 2)"></path><path id="ID_PLACEHOLDER_3" stroke="currentColor" d="M3 8H4H9H15H20H21" stroke-linecap="square" style="stroke-width:var(--ng-icon__stroke-width, 2)"></path></g></svg>