<svg xmlns="http://www.w3.org/2000/svg" fill="none" viewBox="0 0 24 24"><g id="ID_PLACEHOLDER_0"><path id="ID_PLACEHOLDER_1" fill="transparent" d="M19 12C19 16.9706 14.9706 21 10 21C5.02944 21 1 16.9706 1 12C1 7.02944 5.02944 3 10 3C14.9706 3 19 7.02944 19 12Z"></path><path id="ID_PLACEHOLDER_2" stroke="currentColor" d="M10 7.5V12L13 15M19 12C19 16.9706 14.9706 21 10 21C5.02944 21 1 16.9706 1 12C1 7.02944 5.02944 3 10 3C14.9706 3 19 7.02944 19 12Z" stroke-linecap="square" style="stroke-width:var(--ng-icon__stroke-width, 2)"></path><path id="ID_PLACEHOLDER_3" stroke="currentColor" d="M19.3809 21C21.6224 18.6642 23 15.493 23 12C23 8.50702 21.6224 5.33579 19.3809 3" stroke-linecap="square" style="stroke-width:var(--ng-icon__stroke-width, 2)"></path></g></svg>