<svg xmlns="http://www.w3.org/2000/svg" fill="none" viewBox="0 0 24 24"><g id="ID_PLACEHOLDER_0"><path id="ID_PLACEHOLDER_1" fill="transparent" d="M22.5005 8L1.50049 8L1.50049 17H6.00049L6.00049 15L18.0005 15V17L22.5005 17V8Z"></path><g id="ID_PLACEHOLDER_2"><path fill="transparent" d="M19.0005 3V8L5.00049 8L5.00049 3L19.0005 3Z"></path><path fill="transparent" d="M18.0005 15V21L6.00049 21L6.00049 15H18.0005Z"></path></g><g id="ID_PLACEHOLDER_3"><path stroke="currentColor" d="M19.0005 3V8L5.00049 8L5.00049 3L19.0005 3Z" stroke-linecap="square" style="stroke-width:var(--ng-icon__stroke-width, 2)"></path><path stroke="currentColor" d="M18.0005 15V21L6.00049 21V15H18.0005Z" stroke-linecap="square" style="stroke-width:var(--ng-icon__stroke-width, 2)"></path></g><g id="ID_PLACEHOLDER_4"><path stroke="currentColor" d="M18.0005 11.5H18.0044V11.4961H18.0005V11.5Z" stroke-linecap="square" style="stroke-width:var(--ng-icon__stroke-width, 2)"></path><path stroke="currentColor" d="M22.5005 8H1.50049V17H6.00049V15H18.0005V17H22.5005V8Z" stroke-linecap="square" style="stroke-width:var(--ng-icon__stroke-width, 2)"></path></g></g></svg>