<svg xmlns="http://www.w3.org/2000/svg" fill="none" viewBox="0 0 24 24"><g id="ID_PLACEHOLDER_0"><path id="ID_PLACEHOLDER_1" fill="transparent" d="M22 15L22 7L2 7L2 15L22 15Z"></path><path id="ID_PLACEHOLDER_2" fill="transparent" d="M22 21L22 15L2 15L2 21L22 21Z"></path><path id="ID_PLACEHOLDER_3" stroke="currentColor" d="M22 21L2 21M22 21V7L2 7L2 21M22 21V15L2 15L2 21" stroke-linecap="square" style="stroke-width:var(--ng-icon__stroke-width, 2)"></path><path id="ID_PLACEHOLDER_4" stroke="currentColor" d="M12 4C12 5.65685 10.6569 7 9 7C7.34315 7 6 5.65685 6 4C6 2.34315 7.34315 1 9 1C10.6569 1 12 2.34315 12 4ZM12 4C12 5.65685 13.3431 7 15 7C16.6569 7 18 5.65685 18 4C18 2.34315 16.6569 1 15 1C13.3431 1 12 2.34315 12 4ZM8 11L12 7L16 11" stroke-linecap="square" style="stroke-width:var(--ng-icon__stroke-width, 2)"></path></g></svg>