<svg xmlns="http://www.w3.org/2000/svg" fill="none" viewBox="0 0 24 24"><g id="ID_PLACEHOLDER_0"><g id="ID_PLACEHOLDER_1"><path fill="transparent" d="M2 3H9C10.6569 3 12 4.34315 12 6V13.5V21H11C11 21 8 20 2 20V3Z"></path><path fill="transparent" d="M22 3H15C13.3431 3 12 4.34315 12 6V13.5V21H13C13 21 16 20 22 20V3Z"></path></g><path id="ID_PLACEHOLDER_2" stroke="currentColor" d="M12 21V6M12 21H11C11 21 8 20 2 20V3H9C10.6569 3 12 4.34315 12 6M12 21H13C13 21 16 20 22 20V3H15C13.3431 3 12 4.34315 12 6" style="stroke-width:var(--ng-icon__stroke-width, 2)"></path><path id="ID_PLACEHOLDER_3" stroke="currentColor" d="M18 9L16 9M18 12L16 12" stroke-linecap="square" style="stroke-width:var(--ng-icon__stroke-width, 2)"></path></g></svg>