<svg xmlns="http://www.w3.org/2000/svg" fill="none" viewBox="0 0 24 24"><g id="ID_PLACEHOLDER_0"><path id="ID_PLACEHOLDER_1" fill="transparent" d="M12 4C14.7614 4 17 6.23858 17 9H20V21H4V9H7C7 6.23858 9.23858 4 12 4Z"></path><path id="ID_PLACEHOLDER_2" fill="transparent" d="M9 21V15H15V21H9Z"></path><path id="ID_PLACEHOLDER_3" stroke="currentColor" d="M9 21V15H15V21H9Z" stroke-linecap="square" style="stroke-width:var(--ng-icon__stroke-width, 2)"></path><path id="ID_PLACEHOLDER_4" stroke="currentColor" d="M4 9V21H20V9M4 9H3M4 9H7M20 9H21M20 9H17M7 9H17M7 9C7 6.23858 9.23858 4 12 4M17 9C17 6.23858 14.7614 4 12 4M12 4L12.002 3" stroke-linecap="square" style="stroke-width:var(--ng-icon__stroke-width, 2)"></path></g></svg>