<svg xmlns="http://www.w3.org/2000/svg" fill="none" viewBox="0 0 24 24"><g id="ID_PLACEHOLDER_0"><path id="ID_PLACEHOLDER_1" fill="transparent" d="M4 2H15L20 7V22H4V2Z"></path><path id="ID_PLACEHOLDER_2" fill="transparent" d="M14.5 10.5C14.5 11.8807 13.3807 13 12 13C10.6193 13 9.5 11.8807 9.5 10.5C9.5 9.11929 10.6193 8 12 8C13.3807 8 14.5 9.11929 14.5 10.5Z"></path><path id="ID_PLACEHOLDER_3" stroke="currentColor" d="M4 2H15L20 7V22H4V2Z" stroke-linecap="square" style="stroke-width:var(--ng-icon__stroke-width, 2)"></path><path id="ID_PLACEHOLDER_4" stroke="currentColor" d="M17 19C17 17.3431 15.6569 16 14 16H10C8.34315 16 7 17.3431 7 19M14.5 10.5C14.5 11.8807 13.3807 13 12 13C10.6193 13 9.5 11.8807 9.5 10.5C9.5 9.11929 10.6193 8 12 8C13.3807 8 14.5 9.11929 14.5 10.5Z" stroke-linecap="square" style="stroke-width:var(--ng-icon__stroke-width, 2)"></path></g></svg>