<svg xmlns="http://www.w3.org/2000/svg" fill="none" viewBox="0 0 24 24"><g id="ID_PLACEHOLDER_0"><path id="ID_PLACEHOLDER_1" fill="transparent" d="M16 21V10C13.9493 12.5633 10.0507 12.5633 8 10V21H12H16Z"></path><g id="ID_PLACEHOLDER_2"><path fill="transparent" d="M3 21H8V5L5.5 3L3 5V21Z"></path><path fill="transparent" d="M21 21V5L18.5 3L16 5V21H21Z"></path></g><path id="ID_PLACEHOLDER_3" stroke="currentColor" d="M12 21V16" stroke-linecap="square" style="stroke-width:var(--ng-icon__stroke-width, 2)"></path><path id="ID_PLACEHOLDER_4" stroke="currentColor" d="M16 21H21V5L18.5 3L16 5V21ZM16 21H8M8 21H3V5L5.5 3L8 5V21ZM8.5 10.5419C10.4585 12.3827 13.5415 12.3827 15.5 10.5419" stroke-linecap="square" style="stroke-width:var(--ng-icon__stroke-width, 2)"></path></g></svg>