<svg xmlns="http://www.w3.org/2000/svg" fill="none" viewBox="0 0 24 24"><g id="ID_PLACEHOLDER_0"><path id="ID_PLACEHOLDER_1" fill="transparent" d="M6 5H18C18 10.3333 18 15.6667 18 21H6V5Z"></path><g id="ID_PLACEHOLDER_2"><path fill="transparent" d="M14 14H10V21H14V14Z"></path><path fill="transparent" d="M2 21H6V15H2V21Z"></path><path fill="transparent" d="M18 21H22V15H18V21Z"></path><path fill="transparent" d="M14 14H10V21H14V14Z"></path></g><path id="ID_PLACEHOLDER_3" stroke="currentColor" d="M2 15V21H6V15H2ZM2 15V14M22 15V21H18V15H22ZM22 15V14M10 14H14V21H10V14Z" stroke-linecap="square" style="stroke-width:var(--ng-icon__stroke-width, 2)"></path><path id="ID_PLACEHOLDER_4" stroke="currentColor" d="M18 5V3M18 5H14M18 5C18 10.3333 18 15.6667 18 21H6V5M6 5V3M6 5H10M10 3V5M10 5H14M14 3V5" stroke-linecap="square" style="stroke-width:var(--ng-icon__stroke-width, 2)"></path></g></svg>