<svg xmlns="http://www.w3.org/2000/svg" fill="none" viewBox="0 0 24 24"><g id="ID_PLACEHOLDER_0"><path id="ID_PLACEHOLDER_1" fill="transparent" d="M6.49991 4C8.99995 4.00003 9.16656 6.66667 8.99991 8L9.00049 11H21.0005V21H4.00044V8C3.83378 6.66667 3.99981 4 6.49991 4Z"></path><path id="ID_PLACEHOLDER_2" fill="transparent" d="M13 16V21H17V16H13Z"></path><path id="ID_PLACEHOLDER_3" stroke="currentColor" d="M13 16H17V21H13z" style="stroke-width:var(--ng-icon__stroke-width, 2)"></path><path id="ID_PLACEHOLDER_4" stroke="currentColor" d="M2.5 8H3.99991M3.99991 8H8.99991M3.99991 8V21H8.99991M3.99991 8C3.83324 6.66667 3.99981 4 6.49991 4M8.99991 8H10.5M8.99991 8V21M8.99991 8C9.16657 6.66667 9 4 6.49991 4M8.99991 21H21V11H9L8.99991 21ZM6.49991 4V2.5" stroke-linecap="square" style="stroke-width:var(--ng-icon__stroke-width, 2)"></path></g></svg>