<svg xmlns="http://www.w3.org/2000/svg" fill="none" viewBox="0 0 24 24"><g id="ID_PLACEHOLDER_0"><path id="ID_PLACEHOLDER_1" fill="transparent" d="M3 21V10H7V9C7 6.23858 9.23858 4 12 4C14.7614 4 17 6.23858 17 9V10H21V21H3Z"></path><path id="ID_PLACEHOLDER_2" fill="transparent" d="M9 21V18.3541C9 16.2985 10.1614 14.4193 12 13.5C13.8386 14.4193 15 16.2985 15 18.3541V21H9Z"></path><g id="ID_PLACEHOLDER_3"><path stroke="currentColor" d="M11.998 6.99805H12.002V7.00195H11.998V6.99805Z" stroke-linecap="square" style="stroke-width:var(--ng-icon__stroke-width, 2)"></path><path stroke="currentColor" d="M9 21V18.3541C9 16.2985 10.1614 14.4193 12 13.5C13.8386 14.4193 15 16.2985 15 18.3541V21H9Z" stroke-linecap="square" style="stroke-width:var(--ng-icon__stroke-width, 2)"></path></g><path id="ID_PLACEHOLDER_4" stroke="currentColor" d="M7 10V9C7 6.23858 9.23858 4 12 4M7 10H17M7 10H3M17 10V9C17 6.23858 14.7614 4 12 4M17 10H21M3 10V21H21V10M3 10V4M21 10V4M12 4L12.002 3" stroke-linecap="square" style="stroke-width:var(--ng-icon__stroke-width, 2)"></path></g></svg>