<svg xmlns="http://www.w3.org/2000/svg" viewBox="0 0 128 128"><defs><linearGradient id="ID_PLACEHOLDER_0" gradientUnits="userSpaceOnUse" x1="94.252" y1="60.301" x2="82.572" y2="55.395" gradientTransform="matrix(1 0 0 -1 0 130)"><stop offset=".09" stop-color="#1A5964"></stop><stop offset=".3" stop-color="#137078"></stop><stop offset=".5" stop-color="#0E8085"></stop><stop offset=".66" stop-color="#0C858A"></stop><stop offset="1" stop-color="#0A8B8F"></stop></linearGradient><linearGradient id="ID_PLACEHOLDER_1" gradientUnits="userSpaceOnUse" x1="93.27" y1="84.129" x2="118.425" y2="68.173" gradientTransform="matrix(1 0 0 -1 0 130)"><stop offset="0" stop-color="#079EA0"></stop><stop offset=".43" stop-color="#14878E"></stop><stop offset="1" stop-color="#256A77"></stop></linearGradient><linearGradient id="ID_PLACEHOLDER_2" gradientUnits="userSpaceOnUse" x1="103.484" y1="116.443" x2="103.484" y2="31.181" gradientTransform="matrix(1 0 0 -1 0 130)"><stop offset="0" stop-color="#B4B4B4"></stop><stop offset=".8" stop-color="#03ABAB"></stop><stop offset="1" stop-color="#137980"></stop></linearGradient><linearGradient id="ID_PLACEHOLDER_3" gradientUnits="userSpaceOnUse" x1="60.175" y1="83.059" x2="122.803" y2="95.268" gradientTransform="matrix(1 0 0 -1 0 130)"><stop offset="0" stop-color="#0F5D64"></stop><stop offset=".1" stop-color="#097A7E"></stop><stop offset=".23" stop-color="#049395"></stop><stop offset=".34" stop-color="#01A3A3"></stop><stop offset=".43" stop-color="#00A8A8"></stop><stop offset="1" stop-color="#4EBCC1"></stop></linearGradient><linearGradient id="ID_PLACEHOLDER_4" gradientUnits="userSpaceOnUse" x1="3.122" y1="71.054" x2="33.369" y2="88.561" gradientTransform="matrix(1 0 0 -1 0 130)"><stop offset="0" stop-color="#00A9A9"></stop><stop offset=".65" stop-color="#049496"></stop><stop offset="1" stop-color="#088286"></stop></linearGradient><linearGradient id="ID_PLACEHOLDER_5" gradientUnits="userSpaceOnUse" x1="13.047" y1="54.95" x2="37.687" y2="56.314" gradientTransform="matrix(1 0 0 -1 0 130)"><stop offset="0" stop-color="#20626E"></stop><stop offset="1" stop-color="#069D9F"></stop></linearGradient><linearGradient id="ID_PLACEHOLDER_6" gradientUnits="userSpaceOnUse" x1="45.099" y1="125.96" x2="41.233" y2="46.743" gradientTransform="matrix(1 0 0 -1 0 130)"><stop offset="0" stop-color="#99CBD2"></stop><stop offset=".9" stop-color="#498F93"></stop><stop offset="1" stop-color="#2E7B7D"></stop></linearGradient></defs><path fill="url(#ID_PLACEHOLDER_0)" d="M92 99.2h2.5V40l-4.9 7.4v46.1l2.4 5.7z"></path><path fill="url(#ID_PLACEHOLDER_1)" d="M92 99.2V41.7l18.9-36.2h4.1v44.4L96.9 99.2H92"></path><path fill="url(#ID_PLACEHOLDER_2)" d="M115 99.2H92c2.4-4.7 11.6-24 15.6-39.5 7-27.2 7.4-47.7 7.4-47.7v87.2z"></path><path fill="url(#ID_PLACEHOLDER_3)" d="M115 5.5H84.6l-21.4 51 9 24.7h.8c.3 0 .8-.2 1.6-1.6C78.1 73.2 115 5.5 115 5.5z"></path><path fill="url(#ID_PLACEHOLDER_4)" d="M13 99.8l2.5-.6 22.2-40.3V45.8L15.5 7.1 13 5.8v94z"></path><path fill="url(#ID_PLACEHOLDER_5)" d="M37.7 48.3c-1.9 5.7-6.5 19.4-11.2 28.2C18.1 92.7 13 99.8 13 99.8s19.5 1.6 24.7-4.7v-46-.8z"></path><path fill="url(#ID_PLACEHOLDER_6)" d="M54.1 79.5c.8 1.5 1.3 1.6 1.6 1.6H73c.2-.2.3-.3.3-.6-.1-.3-.2-.7-.3-1.1L42.6 3 13 5.8s37.6 67.3 41.1 73.7z"></path><path fill="#149B9A" d="M61 106l-5 14-5-14h-4v19h3v-14l5 14h2l5-14v14h3v-19h-4zm38.5 0L93 117v8h-3v-8l-6.4-11H87l4.5 8 4.5-8h3.5zm10.4 14l1.5 5h3.6l-6-19h-5l-6 19h3.5l1.5-5h6.9zm-6-2.7l2.7-8.9 2.6 8.9h-5.3zm-24 2.7l1.5 5H85l-6-19h-5l-6 19h3.5l1.5-5h6.9zm-6-2.7l2.7-8.9 2.6 8.9h-5.3z"></path></svg>