<svg xmlns="http://www.w3.org/2000/svg" xmlns:xlink="http://www.w3.org/1999/xlink" viewBox="0 0 128 128"><defs><clipPath id="ID_PLACEHOLDER_0"><path d="M0 0h128v128H0z"></path></clipPath><clipPath id="ID_PLACEHOLDER_1"><path d="M0 0h128v128H0z"></path></clipPath><clipPath id="ID_PLACEHOLDER_2"><path d="M0 0h128v128H0z"></path></clipPath><clipPath id="ID_PLACEHOLDER_3"><path d="M0 0h128v128H0z"></path></clipPath><clipPath id="ID_PLACEHOLDER_4"><path d="M0 0h128v128H0z"></path></clipPath><clipPath id="ID_PLACEHOLDER_5"><path d="M0 0h128v128H0z"></path></clipPath><clipPath id="ID_PLACEHOLDER_6"><path d="M0 0h128v128H0z"></path></clipPath><clipPath id="ID_PLACEHOLDER_7"><path d="M0 0h128v128H0z"></path></clipPath><clipPath id="ID_PLACEHOLDER_8"><path d="M0 0h128v128H0z"></path></clipPath><clipPath id="ID_PLACEHOLDER_9"><path d="M0 0h128v128H0z"></path></clipPath><clipPath id="ID_PLACEHOLDER_10"><path d="M0 0h128v128H0z"></path></clipPath><clipPath id="ID_PLACEHOLDER_11"><path d="M0 0h128v128H0z"></path></clipPath><clipPath id="ID_PLACEHOLDER_12"><path d="M0 0h128v128H0z"></path></clipPath><clipPath id="ID_PLACEHOLDER_13"><path d="M0 0h128v128H0z"></path></clipPath><clipPath id="ID_PLACEHOLDER_14"><path d="M0 0h128v128H0z"></path></clipPath><clipPath id="ID_PLACEHOLDER_15"><path d="M0 0h128v128H0z"></path></clipPath><clipPath id="ID_PLACEHOLDER_16"><path d="M0 0h128v128H0z"></path></clipPath><mask id="ID_PLACEHOLDER_17"><g filter="url(#ID_PLACEHOLDER_61)"><path d="M0 0h128v128H0z" fill-opacity=".349"></path></g></mask><mask id="ID_PLACEHOLDER_18"><g filter="url(#ID_PLACEHOLDER_61)"><path d="M0 0h128v128H0z" fill-opacity=".2"></path></g></mask><mask id="ID_PLACEHOLDER_19"><g filter="url(#ID_PLACEHOLDER_61)"><path d="M0 0h128v128H0z" fill-opacity=".6"></path></g></mask><mask id="ID_PLACEHOLDER_20"><g filter="url(#ID_PLACEHOLDER_61)"><path d="M0 0h128v128H0z" fill-opacity=".4"></path></g></mask><mask id="ID_PLACEHOLDER_21"><g filter="url(#ID_PLACEHOLDER_61)"><path d="M0 0h128v128H0z" fill-opacity=".4"></path></g></mask><mask id="ID_PLACEHOLDER_22"><g filter="url(#ID_PLACEHOLDER_61)"><path d="M0 0h128v128H0z" fill-opacity=".4"></path></g></mask><mask id="ID_PLACEHOLDER_23"><g filter="url(#ID_PLACEHOLDER_61)"><path d="M0 0h128v128H0z" fill-opacity=".302"></path></g></mask><mask id="ID_PLACEHOLDER_24"><g filter="url(#ID_PLACEHOLDER_61)"><path d="M0 0h128v128H0z" fill-opacity=".42"></path></g></mask><mask id="ID_PLACEHOLDER_25"><g filter="url(#ID_PLACEHOLDER_61)"><path d="M0 0h128v128H0z" fill-opacity=".2"></path></g></mask><mask id="ID_PLACEHOLDER_26"><g filter="url(#ID_PLACEHOLDER_61)"><path d="M0 0h128v128H0z" fill-opacity=".4"></path></g></mask><mask id="ID_PLACEHOLDER_27"><g filter="url(#ID_PLACEHOLDER_61)"><path d="M0 0h128v128H0z" fill-opacity=".2"></path></g></mask><mask id="ID_PLACEHOLDER_28"><g filter="url(#ID_PLACEHOLDER_61)"><path d="M0 0h128v128H0z" fill-opacity=".4"></path></g></mask><mask id="ID_PLACEHOLDER_29"><g filter="url(#ID_PLACEHOLDER_61)"><path d="M0 0h128v128H0z" fill-opacity=".4"></path></g></mask><mask id="ID_PLACEHOLDER_30"><g filter="url(#ID_PLACEHOLDER_61)"><path d="M0 0h128v128H0z" fill-opacity=".4"></path></g></mask><mask id="ID_PLACEHOLDER_31"><g filter="url(#ID_PLACEHOLDER_61)"><path d="M0 0h128v128H0z" fill-opacity=".349"></path></g></mask><mask id="ID_PLACEHOLDER_32"><g filter="url(#ID_PLACEHOLDER_61)"><path d="M0 0h128v128H0z" fill-opacity=".4"></path></g></mask><mask id="ID_PLACEHOLDER_33"><g filter="url(#ID_PLACEHOLDER_61)"><path d="M0 0h128v128H0z" fill-opacity=".302"></path></g></mask><g id="ID_PLACEHOLDER_34" clip-path="url(#ID_PLACEHOLDER_12)"><path d="M37.71 20.625H90.5l-.2-.773H37.888zm0 0" fill="#b47d4f"></path></g><g id="ID_PLACEHOLDER_35" clip-path="url(#ID_PLACEHOLDER_8)"><path d="M84.824 63.125l-1.523-6.176a.364.364 0 00-.352-.273h12.739c.335 0 .624.222.699.55l1.449 5.9zm0 0" fill="#ff0"></path></g><g id="ID_PLACEHOLDER_36" clip-path="url(#ID_PLACEHOLDER_9)"><path d="M97.836 63.125l-1.46-5.898a.718.718 0 00-.7-.55h-63.2a.712.712 0 00-.703.55l-1.449 5.9a.348.348 0 00.05.287L41.461 80.3c.125.187.34.3.562.3h44.14a.681.681 0 00.564-.3l11.085-16.887c.024-.09.05-.187.024-.29zm0 0" fill="url(#ID_PLACEHOLDER_51)"></path></g><g id="ID_PLACEHOLDER_37" clip-path="url(#ID_PLACEHOLDER_7)"><path d="M77.96 43.813h5.653v-5.649zm0 0" fill="#fff"></path></g><g id="ID_PLACEHOLDER_38" clip-path="url(#ID_PLACEHOLDER_14)"><path d="M30.29 63.273h67.585l-.164-.636H30.438zm0 0" fill="#ff0"></path></g><g id="ID_PLACEHOLDER_39" clip-path="url(#ID_PLACEHOLDER_1)"><path d="M45.426 80.602h37.312v2.16H45.426zm0 0" fill="#002d4f"></path></g><g id="ID_PLACEHOLDER_40" clip-path="url(#ID_PLACEHOLDER_0)"><path d="M56.574 30.04h.352v13.773h-.352zm0 0" fill="#004972"></path></g><g id="ID_PLACEHOLDER_41" clip-path="url(#ID_PLACEHOLDER_15)"><path d="M93.074 56.676l-.324-1.824H35.437l-.324 1.824zm0 0" fill="#002d4f"></path></g><g id="ID_PLACEHOLDER_42" clip-path="url(#ID_PLACEHOLDER_5)"><path d="M43.512 63.074l1.527-6.176a.36.36 0 01.348-.273H32.648a.712.712 0 00-.699.55l-1.45 5.9zm0 0" fill="#cd7f1f"></path></g><g id="ID_PLACEHOLDER_43" clip-path="url(#ID_PLACEHOLDER_4)"><path d="M44.574 29.512h39.028v1.562H44.574zm0 0" fill="#004972"></path></g><g id="ID_PLACEHOLDER_44" clip-path="url(#ID_PLACEHOLDER_16)"><path d="M44.574 29.512h39.04v15.601h-39.04zm0 0" fill="url(#ID_PLACEHOLDER_52)"></path></g><g id="ID_PLACEHOLDER_45" clip-path="url(#ID_PLACEHOLDER_3)"><path d="M73.71 80.262l11.165-16.95h12.988a.647.647 0 01-.05.137L86.727 80.336a.681.681 0 01-.563.3H73.086a.76.76 0 00.625-.374zm0 0" fill="#ffe700"></path></g><g id="ID_PLACEHOLDER_46" clip-path="url(#ID_PLACEHOLDER_13)"><path d="M47.688 107.54h32.488v.522h-32.49zm0 0" fill="#004972"></path></g><g id="ID_PLACEHOLDER_47" clip-path="url(#ID_PLACEHOLDER_10)"><path d="M71.25 30.04h.352v13.773h-.352zm0 0" fill="#004972"></path></g><g id="ID_PLACEHOLDER_48" clip-path="url(#ID_PLACEHOLDER_6)"><path d="M54.688 29.512H44.573v10.101zm0 0" fill="#fff"></path></g><g id="ID_PLACEHOLDER_49" clip-path="url(#ID_PLACEHOLDER_2)"><path d="M67.477 43.813l14.296-14.301H61.477l-14.301 14.3zm0 0" fill="#fff"></path></g><g id="ID_PLACEHOLDER_50" clip-path="url(#ID_PLACEHOLDER_11)"><path d="M54.887 80.602h-9.473v26.062c0 .484.387.875.875.875h8.586V80.602zm0 0" fill="#002d4f"></path></g><linearGradient id="ID_PLACEHOLDER_51" x1="402.006" x2="592.967" y1="683.678" y2="352.925" gradientTransform="scale(.125)" gradientUnits="userSpaceOnUse"><stop offset=".204" stop-color="#ffd813" stop-opacity="0"></stop><stop offset=".781" stop-color="#ffd813"></stop></linearGradient><linearGradient id="ID_PLACEHOLDER_52" x1="356.628" x2="668.854" y1="298.508" y2="298.508" gradientTransform="scale(.125)" gradientUnits="userSpaceOnUse"><stop offset=".408" stop-color="#fff" stop-opacity="0"></stop><stop offset=".999" stop-color="#fff"></stop></linearGradient><linearGradient id="ID_PLACEHOLDER_53" x1="445.097" x2="445.097" y1="350.498" y2="240.257" gradientTransform="scale(.125)" gradientUnits="userSpaceOnUse"><stop offset=".096" stop-color="#00caf4" stop-opacity="0"></stop><stop offset=".568" stop-color="#00caf4" stop-opacity=".282"></stop><stop offset=".6" stop-color="#00caf4" stop-opacity=".302"></stop><stop offset=".797" stop-color="#00caf4" stop-opacity=".302"></stop><stop offset="1" stop-color="#00caf4" stop-opacity=".102"></stop></linearGradient><linearGradient id="ID_PLACEHOLDER_54" x1="-13963.451" x2="-13963.451" y1="350.498" y2="240.257" gradientTransform="matrix(-.125 0 0 .125 -1672.883 0)" gradientUnits="userSpaceOnUse"><stop offset=".096" stop-color="#00caf4" stop-opacity="0"></stop><stop offset=".568" stop-color="#00caf4" stop-opacity=".282"></stop><stop offset=".6" stop-color="#00caf4" stop-opacity=".302"></stop><stop offset=".797" stop-color="#00caf4" stop-opacity=".302"></stop><stop offset="1" stop-color="#00caf4" stop-opacity=".102"></stop></linearGradient><linearGradient id="ID_PLACEHOLDER_55" x1="271.237" x2="754.495" y1="200.537" y2="200.537" gradientTransform="scale(.125)" gradientUnits="userSpaceOnUse"><stop offset=".096" stop-color="#00caf4" stop-opacity="0"></stop><stop offset=".568" stop-color="#00caf4" stop-opacity=".282"></stop><stop offset=".6" stop-color="#00caf4" stop-opacity=".302"></stop><stop offset=".797" stop-color="#00caf4" stop-opacity=".302"></stop><stop offset="1" stop-color="#00caf4" stop-opacity=".102"></stop></linearGradient><linearGradient id="ID_PLACEHOLDER_56" x1="341.428" x2="684.054" y1="376.151" y2="376.151" gradientTransform="scale(.125)" gradientUnits="userSpaceOnUse"><stop offset=".204" stop-color="#ffd813" stop-opacity="0"></stop><stop offset=".781" stop-color="#ffd813"></stop></linearGradient><linearGradient id="ID_PLACEHOLDER_57" x1="280.913" x2="744.569" y1="421.897" y2="421.897" gradientTransform="scale(.125)" gradientUnits="userSpaceOnUse"><stop offset=".096" stop-color="#00caf4" stop-opacity="0"></stop><stop offset=".568" stop-color="#00caf4" stop-opacity=".282"></stop><stop offset=".6" stop-color="#00caf4" stop-opacity=".302"></stop><stop offset=".797" stop-color="#00caf4" stop-opacity=".302"></stop><stop offset="1" stop-color="#00caf4" stop-opacity=".102"></stop></linearGradient><linearGradient id="ID_PLACEHOLDER_58" x1="512.625" x2="512.625" y1="644.777" y2="860.332" gradientTransform="scale(.125)" gradientUnits="userSpaceOnUse"><stop offset="0" stop-color="#005f8e"></stop><stop offset=".724" stop-color="#004972"></stop><stop offset=".74" stop-color="#004972"></stop></linearGradient><linearGradient id="ID_PLACEHOLDER_59" x1="623.997" x2="623.997" y1="644.778" y2="860.332" gradientTransform="scale(.125)" gradientUnits="userSpaceOnUse"><stop offset="0" stop-color="#008dc4"></stop><stop offset=".541" stop-color="#0072a7"></stop></linearGradient><linearGradient id="ID_PLACEHOLDER_60" x1="301.713" x2="724.02" y1="152.949" y2="152.949" gradientTransform="scale(.125)" gradientUnits="userSpaceOnUse"><stop offset=".204" stop-color="#ffd813" stop-opacity="0"></stop><stop offset=".781" stop-color="#ffd813"></stop></linearGradient><filter id="ID_PLACEHOLDER_61" width="100%" height="100%" x="0%" y="0%" filterUnits="objectBoundingBox"><feColorMatrix in="SourceGraphic" values="0 0 0 0 1 0 0 0 0 1 0 0 0 0 1 0 0 0 1 0"></feColorMatrix></filter></defs><path d="M47.688 107.54v2.347c0 .199.164.363.363.363h31.773c.2 0 .364-.164.364-.363v-2.348zM83.61 45.113H44.584v-15.61h39.023zm0 0" fill="#00caf4"></path><use mask="url(#ID_PLACEHOLDER_19)" xlink:href="#ID_PLACEHOLDER_44"></use><use mask="url(#ID_PLACEHOLDER_25)" xlink:href="#ID_PLACEHOLDER_37"></use><use mask="url(#ID_PLACEHOLDER_31)" xlink:href="#ID_PLACEHOLDER_49"></use><use mask="url(#ID_PLACEHOLDER_29)" xlink:href="#ID_PLACEHOLDER_43"></use><use mask="url(#ID_PLACEHOLDER_27)" xlink:href="#ID_PLACEHOLDER_48"></use><path d="M83.61 45.23H44.585v-1.42h39.023zm0 0" fill="#002d4f"></path><path d="M71.613 30.04h1.524v13.773h-1.524zm-16.562 0h1.523v13.773h-1.523zm0 0" fill="#002d4f"></path><path d="M55.05 30.04h1.177v13.773H55.05zm0 0" fill="url(#ID_PLACEHOLDER_53)"></path><path d="M71.96 30.04h1.177v13.773H71.96zm0 0" fill="url(#ID_PLACEHOLDER_54)"></path><use mask="url(#ID_PLACEHOLDER_33)" xlink:href="#ID_PLACEHOLDER_40"></use><use mask="url(#ID_PLACEHOLDER_23)" xlink:href="#ID_PLACEHOLDER_47"></use><path d="M85.512 48.8l-.586-3.277a.353.353 0 00-.352-.296h-40.96a.353.353 0 00-.352.296l-.586 3.278zm0 0" fill="#ffc600"></path><path d="M93.074 56.676l-1.363-7.574a.346.346 0 00-.348-.3H36.824a.346.346 0 00-.347.301l-1.364 7.574zm0 0" fill="#002d4f"></path><path d="M93.074 56.676l-1.363-7.574a.346.346 0 00-.348-.3H36.824a.346.346 0 00-.347.301l-1.364 7.574zm0 0" fill="url(#ID_PLACEHOLDER_57)"></path><path d="M45.426 80.602v26.062a.87.87 0 00.875.875h35.55c.485 0 .876-.39.876-.875V80.602zm0 0" fill="url(#ID_PLACEHOLDER_58)"></path><path d="M36.824 48.8a.346.346 0 00-.347.302l-.016.074h55.266l-.016-.074a.346.346 0 00-.348-.301zm0 0" fill="#002d4f"></path><path d="M37.71 20.625H90.5l-.727-2.7a.411.411 0 00-.398-.3H38.727a.43.43 0 00-.403.313zm0 0" fill="#ffc600"></path><path d="M37.71 20.625H90.5l-.727-2.7a.411.411 0 00-.398-.3H38.727a.43.43 0 00-.403.313zm0 0" fill="url(#ID_PLACEHOLDER_60)"></path><use mask="url(#ID_PLACEHOLDER_21)" xlink:href="#ID_PLACEHOLDER_34"></use><path d="M35.563 30.04h57.085c.141 0 .25-.102.278-.227l1.398-9.188H33.898l1.391 9.188a.28.28 0 00.273.226zm0 0" fill="#002d4f"></path><path d="M33.988 21.188h60.239l.085-.563H33.898zm0 0" fill="#005a82"></path><path d="M85.512 48.8l-.586-3.277a.353.353 0 00-.352-.296h-40.96a.353.353 0 00-.352.296l-.586 3.278zm0 0" fill="url(#ID_PLACEHOLDER_56)"></path><path d="M85.512 48.8l-.2-1.09H42.876l-.2 1.09zm0 0" fill="#db9927"></path><use mask="url(#ID_PLACEHOLDER_17)" xlink:href="#ID_PLACEHOLDER_41"></use><use mask="url(#ID_PLACEHOLDER_18)" xlink:href="#ID_PLACEHOLDER_46"></use><use mask="url(#ID_PLACEHOLDER_20)" xlink:href="#ID_PLACEHOLDER_50"></use><path d="M82.738 106.664V80.602h-9.476v26.949h8.601a.9.9 0 00.875-.887zm0 0" fill="url(#ID_PLACEHOLDER_59)"></path><path d="M97.836 63.125l-1.46-5.898a.718.718 0 00-.7-.55h-63.2a.712.712 0 00-.703.55l-1.449 5.9a.348.348 0 00.05.287L41.461 80.3c.125.187.34.3.562.3h44.14a.681.681 0 00.564-.3l11.085-16.887c.024-.09.05-.187.024-.29zm0 0" fill="#ffc600"></path><use mask="url(#ID_PLACEHOLDER_22)" xlink:href="#ID_PLACEHOLDER_36"></use><path d="M30.313 63.273a.51.51 0 00.05.141L41.45 80.301c.125.187.34.3.563.3h44.136a.676.676 0 00.563-.3L97.8 63.414a.3.3 0 00.05-.14zm0 0" fill="#db9927"></path><use mask="url(#ID_PLACEHOLDER_24)" xlink:href="#ID_PLACEHOLDER_39"></use><path d="M54.46 80.262L43.3 63.312H30.314a.474.474 0 00.05.137L41.45 80.336c.125.187.34.3.563.3h13.09a.786.786 0 01-.64-.374zm0 0" fill="#cd7f1f"></path><use mask="url(#ID_PLACEHOLDER_26)" xlink:href="#ID_PLACEHOLDER_42"></use><use mask="url(#ID_PLACEHOLDER_28)" xlink:href="#ID_PLACEHOLDER_45"></use><use mask="url(#ID_PLACEHOLDER_30)" xlink:href="#ID_PLACEHOLDER_35"></use><use mask="url(#ID_PLACEHOLDER_32)" xlink:href="#ID_PLACEHOLDER_38"></use><path d="M92.96 29.512l1.353-8.887H33.898l1.352 8.887zm0 0" fill="url(#ID_PLACEHOLDER_55)"></path><path d="M43.613 45.238a.353.353 0 00-.351.301l-.024.125h41.7l-.024-.125a.353.353 0 00-.352-.3zm0 0" fill="#fff203"></path></svg>