<svg xmlns="http://www.w3.org/2000/svg" viewBox="0 0 24 24"><mask id="ID_PLACEHOLDER_0" fill="#fff"><path d="M12 6.5c0-.24 0-.359.08-.433c.082-.074.194-.065.42-.046a6 6 0 1 1-5.428 9.401c-.13-.186-.194-.279-.17-.386c.024-.107.128-.166.335-.286l4.513-2.606c.122-.07.183-.105.216-.163c.034-.058.034-.129.034-.27z"></path></mask><g fill="none" stroke="currentColor"><path fill="currentColor" fill-opacity=".25" d="M12 6.5c0-.24 0-.359.08-.433c.082-.074.194-.065.42-.046a6 6 0 1 1-5.428 9.401c-.13-.186-.194-.279-.17-.386c.024-.107.128-.166.335-.286l4.513-2.606c.122-.07.183-.105.216-.163c.034-.058.034-.129.034-.27z" mask="url(#ID_PLACEHOLDER_0)" style="stroke-width:var(--ng-icon__stroke-width, 2.4)"></path><circle cx="12" cy="12" r="8.4" style="stroke-width:var(--ng-icon__stroke-width, 1.2)"></circle></g></svg>