<svg xmlns="http://www.w3.org/2000/svg" fill="none" viewBox="0 0 512 512"><circle cx="392" cy="344" r="88" stroke="currentColor" stroke-linecap="round" stroke-linejoin="round" style="stroke-width:var(--ng-icon__stroke-width, 32)"></circle><circle cx="120" cy="344" r="88" stroke="currentColor" stroke-linecap="round" stroke-linejoin="round" style="stroke-width:var(--ng-icon__stroke-width, 32)"></circle><path stroke="currentColor" stroke-linecap="round" stroke-linejoin="round" d="M208 344V128c0-26.5-16-48-44-48-35 0-46.5 21.5-57 48 0 0-48.5 127.833-71 189.5M208 184s16.5-8 48-8 48 8 48 8M208 272s16.5-8 48-8 48 8 48 8M304 344V128c0-26.5 16-48 44-48 35 0 46.5 21.5 57 48 0 0 48.5 127.833 71 189.5" style="stroke-width:var(--ng-icon__stroke-width, 32)"></path></svg>