<svg xmlns="http://www.w3.org/2000/svg" viewBox="0 0 512 512" fill="currentColor"><rect width="416" height="320" x="48" y="96" rx="28" ry="28" fill="none" stroke="currentColor" stroke-linejoin="round" style="stroke-width:var(--ng-icon__stroke-width, 32px)"></rect><rect width="80" height="80" x="384" y="336" rx="28" ry="28" fill="none" stroke="currentColor" stroke-linejoin="round" style="stroke-width:var(--ng-icon__stroke-width, 32px)"></rect><rect width="80" height="80" x="384" y="256" rx="28" ry="28" fill="none" stroke="currentColor" stroke-linejoin="round" style="stroke-width:var(--ng-icon__stroke-width, 32px)"></rect><rect width="80" height="80" x="384" y="176" rx="28" ry="28" fill="none" stroke="currentColor" stroke-linejoin="round" style="stroke-width:var(--ng-icon__stroke-width, 32px)"></rect><rect width="80" height="80" x="384" y="96" rx="28" ry="28" fill="none" stroke="currentColor" stroke-linejoin="round" style="stroke-width:var(--ng-icon__stroke-width, 32px)"></rect><rect width="80" height="80" x="48" y="336" rx="28" ry="28" fill="none" stroke="currentColor" stroke-linejoin="round" style="stroke-width:var(--ng-icon__stroke-width, 32px)"></rect><rect width="80" height="80" x="48" y="256" rx="28" ry="28" fill="none" stroke="currentColor" stroke-linejoin="round" style="stroke-width:var(--ng-icon__stroke-width, 32px)"></rect><rect width="80" height="80" x="48" y="176" rx="28" ry="28" fill="none" stroke="currentColor" stroke-linejoin="round" style="stroke-width:var(--ng-icon__stroke-width, 32px)"></rect><rect width="80" height="80" x="48" y="96" rx="28" ry="28" fill="none" stroke="currentColor" stroke-linejoin="round" style="stroke-width:var(--ng-icon__stroke-width, 32px)"></rect><rect width="256" height="160" x="128" y="96" rx="28" ry="28" fill="none" stroke="currentColor" stroke-linejoin="round" style="stroke-width:var(--ng-icon__stroke-width, 32px)"></rect><rect width="256" height="160" x="128" y="256" rx="28" ry="28" fill="none" stroke="currentColor" stroke-linejoin="round" style="stroke-width:var(--ng-icon__stroke-width, 32px)"></rect></svg>