<svg xmlns="http://www.w3.org/2000/svg" viewBox="0 0 256 256" width="256" height="256">
  <defs>
    <linearGradient id="blazorAngularGradient" x1="0%" y1="0%" x2="100%" y2="100%">
      <stop offset="0%" style="stop-color:#DD0031"/>
      <stop offset="50%" style="stop-color:#9B4DCA"/>
      <stop offset="100%" style="stop-color:#512BD4"/>
    </linearGradient>
    <linearGradient id="innerGradient" x1="0%" y1="0%" x2="0%" y2="100%">
      <stop offset="0%" style="stop-color:#C3002F"/>
      <stop offset="100%" style="stop-color:#7B2FBF"/>
    </linearGradient>
  </defs>

  <!-- Angular-style shield shape -->
  <path d="M128 16L32 56v80c0 53.3 40.9 103.1 96 120 55.1-16.9 96-66.7 96-120V56L128 16z"
        fill="url(#blazorAngularGradient)"/>

  <!-- Inner shield detail -->
  <path d="M128 36L52 68v68c0 43.7 32.4 84.9 76 100 43.6-15.1 76-56.3 76-100V68L128 36z"
        fill="url(#innerGradient)"/>

  <!-- Large symmetrical A -->
  <path d="M128 55
           L68 200h30l15-40h30l15 40h30L128 55z"
        fill="#FFFFAA"/>


  <!-- Blazor flame accent at top -->
  <path d="M128 28
           c-10 15-22 25-22 42c0 14 10 24 22 30
           c12-6 22-16 22-30c0-17-12-27-22-42z"
        fill="#FFFFFF" opacity="0.85"/>
</svg>
