<svg xmlns="http://www.w3.org/2000/svg" viewBox="0 0 24 24" fill="none" stroke="currentColor" stroke-linecap="round" stroke-linejoin="round" style="stroke-width:var(--ng-icon__stroke-width, 2)"><path stroke="none" d="M0 0h24v24H0z" fill="none"></path><path d="M11 7v-2h-1"></path><path d="M18 19v-1"></path><path d="M15.5 5h2a.5 .5 0 0 1 .5 .5v4a.5 .5 0 0 1 -.5 .5h-2a.5 .5 0 0 1 -.5 -.5v-4a.5 .5 0 0 1 .5 -.5z"></path><path d="M10.5 14h2a.5 .5 0 0 1 .5 .5v4a.5 .5 0 0 1 -.5 .5h-2a.5 .5 0 0 1 -.5 -.5v-4a.5 .5 0 0 1 .5 -.5z"></path><path d="M6 10v.01"></path><path d="M6 19v.01"></path><path d="M3 3l18 18"></path></svg>