<svg xmlns="http://www.w3.org/2000/svg" viewBox="0 0 24 24" fill="none" stroke="currentColor" stroke-linecap="round" stroke-linejoin="round" style="stroke-width:var(--ng-icon__stroke-width, 2)"><path stroke="none" d="M0 0h24v24H0z" fill="none"></path><path d="M6 9m-3 0a3 3 0 1 0 6 0a3 3 0 1 0 -6 0"></path><path d="M18 9m-3 0a3 3 0 1 0 6 0a3 3 0 1 0 -6 0"></path><path d="M12 9m-3 0a3 3 0 1 0 6 0a3 3 0 1 0 -6 0"></path><path d="M9 15m-3 0a3 3 0 1 0 6 0a3 3 0 1 0 -6 0"></path><path d="M15 15m-3 0a3 3 0 1 0 6 0a3 3 0 1 0 -6 0"></path></svg>