<svg xmlns="http://www.w3.org/2000/svg" viewBox="0 0 24 24" fill="none" stroke="currentColor" stroke-linecap="round" stroke-linejoin="round" style="stroke-width:var(--ng-icon__stroke-width, 2)"><path stroke="none" d="M0 0h24v24H0z" fill="none"></path><path d="M8.595 4.577a2 2 0 0 1 1.405 -.577h4a2 2 0 0 1 2 2v2"></path><path d="M12 8h6a2 2 0 0 1 2 2v6m-.576 3.405a2 2 0 0 1 -1.424 .595h-12a2 2 0 0 1 -2 -2v-8a2 2 0 0 1 2 -2h2"></path><path d="M10 14h4"></path><path d="M12 12v4"></path><path d="M3 3l18 18"></path></svg>