<svg xmlns="http://www.w3.org/2000/svg" viewBox="0 0 24 24" fill="none" stroke="currentColor" stroke-linecap="round" stroke-linejoin="round" style="stroke-width:var(--ng-icon__stroke-width, 2)"><path stroke="none" d="M0 0h24v24H0z" fill="none"></path><path d="M9 15l-1 -3l4 -2l4 1h3.5"></path><path d="M4 19m-1 0a1 1 0 1 0 2 0a1 1 0 1 0 -2 0"></path><path d="M12 6m-1 0a1 1 0 1 0 2 0a1 1 0 1 0 -2 0"></path><path d="M12 17v-7"></path><path d="M8 20h7l1 -4l4 -2"></path><path d="M18 20h3"></path></svg>