<svg xmlns="http://www.w3.org/2000/svg" viewBox="0 0 24 24" fill="none" stroke="currentColor" stroke-linecap="round" stroke-linejoin="round" style="stroke-width:var(--ng-icon__stroke-width, 2)"><path stroke="none" d="M0 0h24v24H0z" fill="none"></path><path d="M17 13a2 2 0 1 1 4 0v4m-2 2h-14a2 2 0 0 1 -2 -2v-4a2 2 0 1 1 4 0v2h8.036"></path><path d="M5 11v-5a3 3 0 0 1 .134 -.89m1.987 -1.98a3 3 0 0 1 .879 -.13h8a3 3 0 0 1 3 3v5"></path><path d="M6 19v2"></path><path d="M18 19v2"></path><path d="M3 3l18 18"></path></svg>