<svg xmlns="http://www.w3.org/2000/svg" viewBox="0 0 24 24" fill="none" stroke="currentColor" stroke-linecap="round" stroke-linejoin="round" style="stroke-width:var(--ng-icon__stroke-width, 2)"><path stroke="none" d="M0 0h24v24H0z" fill="none"></path><path d="M4 4m-2 0a2 2 0 1 0 4 0a2 2 0 1 0 -4 0"></path><path d="M20 10m-2 0a2 2 0 1 0 4 0a2 2 0 1 0 -4 0"></path><path d="M4 12m-2 0a2 2 0 1 0 4 0a2 2 0 1 0 -4 0"></path><path d="M4 20m-2 0a2 2 0 1 0 4 0a2 2 0 1 0 -4 0"></path><path d="M6 12h3a1 1 0 0 1 1 1v6a1 1 0 0 1 -1 1h-3"></path><path d="M6 4h7a1 1 0 0 1 1 1v10a1 1 0 0 1 -1 1h-2"></path><path d="M14 10h4"></path></svg>