<svg xmlns="http://www.w3.org/2000/svg" viewBox="0 0 24 24" fill="none" stroke="currentColor" stroke-linecap="round" stroke-linejoin="round" style="stroke-width:var(--ng-icon__stroke-width, 2)"><path stroke="none" d="M0 0h24v24H0z" fill="none"></path><path d="M14 10a2 2 0 1 0 -4 0a2 2 0 0 0 4 0z"></path><path d="M6 10a2 2 0 1 0 -4 0a2 2 0 0 0 4 0z"></path><path d="M22 10a2 2 0 1 0 -4 0a2 2 0 0 0 4 0z"></path><path d="M2 16h20"></path><path d="M4 12v4"></path><path d="M12 12v4"></path><path d="M20 12v4"></path></svg>