<svg xmlns="http://www.w3.org/2000/svg" viewBox="0 0 24 24" fill="none" stroke="currentColor" stroke-linecap="round" stroke-linejoin="round" style="stroke-width:var(--ng-icon__stroke-width, 2)"><path stroke="none" d="M0 0h24v24H0z" fill="none"></path><path d="M3 5a2 2 0 0 1 2 -2h14a2 2 0 0 1 2 2v14a2 2 0 0 1 -2 2h-14a2 2 0 0 1 -2 -2z"></path><path d="M17 17a2 2 0 0 1 -2 -2v-8h-5a2 2 0 0 0 -2 2"></path><path d="M7 17a2.775 2.775 0 0 0 2.632 -1.897l.368 -1.103a13.4 13.4 0 0 1 3.236 -5.236l1.764 -1.764"></path><path d="M10 14h5"></path></svg>