<svg xmlns="http://www.w3.org/2000/svg" viewBox="0 0 24 24" fill="none" stroke="currentColor" stroke-linecap="round" stroke-linejoin="round" style="stroke-width:var(--ng-icon__stroke-width, 2)"><path stroke="none" d="M0 0h24v24H0z" fill="none"></path><path d="M12 12m-9 0a9 9 0 1 0 18 0a9 9 0 1 0 -18 0"></path><path d="M11.5 13.5m-1.5 0a1.5 1.5 0 1 0 3 0a1.5 1.5 0 1 0 -3 0"></path><path d="M7 15v-6"></path><path d="M15.5 12h3"></path><path d="M17 10.5v3"></path><path d="M10 13.5v-3a1.5 1.5 0 0 1 1.5 -1.5h1"></path></svg>