<svg xmlns="http://www.w3.org/2000/svg" viewBox="0 0 24 24" fill="none" stroke="currentColor" stroke-linecap="round" stroke-linejoin="round" style="stroke-width:var(--ng-icon__stroke-width, 2)"><path stroke="none" d="M0 0h24v24H0z" fill="none"></path><path d="M19 5v14a2 2 0 0 1 -2 2h-10a2 2 0 0 1 -2 -2v-14a2 2 0 0 1 2 -2h10a2 2 0 0 1 2 2"></path><path d="M8 6h.01"></path><path d="M16 18h.01"></path><path d="M10 9h3a1 1 0 0 1 1 1v1a1 1 0 0 1 -1 1h-2a1 1 0 0 0 -1 1v1a1 1 0 0 0 1 1h3"></path></svg>