<svg xmlns="http://www.w3.org/2000/svg" xmlns:xlink="http://www.w3.org/1999/xlink" id="ID_PLACEHOLDER_0" viewBox="0 0 512 512"><path fill="#1eb53a" d="M0 341.3h512V512H0z"></path><path fill="#0099b5" d="M0 0h512v170.7H0z"></path><path fill="#ce1126" d="M0 163.8h512v184.4H0z"></path><path fill="#fff" d="M0 174h512v164H0z"></path><circle cx="143.4" cy="81.9" r="61.4" fill="#fff"></circle><circle cx="163.8" cy="81.9" r="61.4" fill="#0099b5"></circle><g fill="#fff" transform="translate(278.5 131)scale(2.048)"><g id="ID_PLACEHOLDER_1"><g id="ID_PLACEHOLDER_2"><g id="ID_PLACEHOLDER_3"><g id="ID_PLACEHOLDER_4"><path id="ID_PLACEHOLDER_5" d="M0-6-1.9-.3 1 .7"></path><use xlink:href="#ID_PLACEHOLDER_5" width="100%" height="100%" transform="scale(-1 1)"></use></g><use xlink:href="#ID_PLACEHOLDER_4" width="100%" height="100%" transform="rotate(72)"></use></g><use xlink:href="#ID_PLACEHOLDER_4" width="100%" height="100%" transform="rotate(-72)"></use><use xlink:href="#ID_PLACEHOLDER_3" width="100%" height="100%" transform="rotate(144)"></use></g><use xlink:href="#ID_PLACEHOLDER_2" width="100%" height="100%" y="-24"></use><use xlink:href="#ID_PLACEHOLDER_2" width="100%" height="100%" y="-48"></use></g><use xlink:href="#ID_PLACEHOLDER_1" width="100%" height="100%" x="24"></use><use xlink:href="#ID_PLACEHOLDER_1" width="100%" height="100%" x="48"></use><use xlink:href="#ID_PLACEHOLDER_2" width="100%" height="100%" x="-48"></use><use xlink:href="#ID_PLACEHOLDER_2" width="100%" height="100%" x="-24"></use><use xlink:href="#ID_PLACEHOLDER_2" width="100%" height="100%" x="-24" y="-24"></use></g></svg>