<svg xmlns="http://www.w3.org/2000/svg" id="ID_PLACEHOLDER_0" viewBox="0 0 512 512"><defs><clipPath id="ID_PLACEHOLDER_1"><path fill-opacity=".7" d="M0-.2h496.3V496H0z"></path></clipPath></defs><g fill-rule="evenodd" clip-path="url(#ID_PLACEHOLDER_1)" transform="translate(0 .3)scale(1.0316)"><path fill="#ffe300" d="M0-.2h744V496H0z"></path><path fill="#118600" d="M0 201.5h744v99.7H0zM0 0h744v99.7H0z"></path><path fill="#d80000" d="M0 0h297.1v301.2H0z"></path><path fill="#fff" d="M130.3 124.3c0-.9 18.3-51.5 18.3-51.5l16.6 50.6s55.6 1.7 55.6.8-44 33.2-44 33.2 20.7 58.1 19.9 56.5-48.1-34.9-48.1-34.9-48.2 33.2-47.3 33.2 18.2-54.7 18.2-54.7L76.4 125z"></path><path fill="#118600" d="M0 396.4h744v99.7H0z"></path></g></svg>