<svg xmlns="http://www.w3.org/2000/svg" fill="none" viewBox="0 0 24 24"><g id="ID_PLACEHOLDER_0"><path id="ID_PLACEHOLDER_1" fill="transparent" d="M12 12C12 14.4853 9.98528 16.5 7.5 16.5C5.01472 16.5 3 14.4853 3 12C3 9.51472 5.01472 7.5 7.5 7.5C9.98528 7.5 12 9.51472 12 12Z"></path><path id="ID_PLACEHOLDER_2" stroke="currentColor" d="M7.5 16.5H16.5C18.9853 16.5 21 14.4853 21 12C21 9.51472 18.9853 7.5 16.5 7.5H7.5M7.5 16.5C5.01472 16.5 3 14.4853 3 12C3 9.51472 5.01472 7.5 7.5 7.5M7.5 16.5C9.98528 16.5 12 14.4853 12 12C12 9.51472 9.98528 7.5 7.5 7.5" style="stroke-width:var(--ng-icon__stroke-width, 2)"></path></g></svg>