<svg xmlns="http://www.w3.org/2000/svg" fill="none" viewBox="0 0 24 24"><g id="ID_PLACEHOLDER_0"><path id="ID_PLACEHOLDER_1" fill="transparent" d="M22 17.75C22 19.8211 20.3211 21.5 18.25 21.5C16.1789 21.5 14.5 19.8211 14.5 17.75C14.5 15.6789 16.1789 14 18.25 14C20.3211 14 22 15.6789 22 17.75Z"></path><path id="ID_PLACEHOLDER_2" stroke="currentColor" d="M22 11V3H2V17H11M4 21H11" stroke-linecap="square" style="stroke-width:var(--ng-icon__stroke-width, 2)"></path><path id="ID_PLACEHOLDER_3" stroke="currentColor" d="M20.9036 20.3997L22.5 22M22 17.75C22 19.8211 20.3211 21.5 18.25 21.5C16.1789 21.5 14.5 19.8211 14.5 17.75C14.5 15.6789 16.1789 14 18.25 14C20.3211 14 22 15.6789 22 17.75Z" stroke-linecap="square" style="stroke-width:var(--ng-icon__stroke-width, 2)"></path></g></svg>