<svg xmlns="http://www.w3.org/2000/svg" fill="none" viewBox="0 0 24 24"><g id="ID_PLACEHOLDER_0"><path id="ID_PLACEHOLDER_1" fill="transparent" d="M3 19H21V16L19 13V8C19 4.13401 15.866 1 12 1C8.13401 1 5 4.13401 5 8V13L3 16V19Z"></path><path id="ID_PLACEHOLDER_2" fill="transparent" d="M12 22.5C13.933 22.5 15.5 20.933 15.5 19H8.5C8.5 20.933 10.067 22.5 12 22.5Z"></path><g id="ID_PLACEHOLDER_3"><path stroke="currentColor" d="M3 19H21V16L19 13V8C19 4.13401 15.866 1 12 1C8.13401 1 5 4.13401 5 8V13L3 16V19Z" stroke-linecap="square" style="stroke-width:var(--ng-icon__stroke-width, 2)"></path><path stroke="currentColor" d="M12 22.5C13.933 22.5 15.5 20.933 15.5 19H8.5C8.5 20.933 10.067 22.5 12 22.5Z" stroke-linecap="square" style="stroke-width:var(--ng-icon__stroke-width, 2)"></path></g><path id="ID_PLACEHOLDER_4" stroke="currentColor" d="M12 7V11M12 14.5H12.0039V14.5039H12V14.5Z" stroke-linecap="square" style="stroke-width:var(--ng-icon__stroke-width, 2)"></path></g></svg>