<svg xmlns="http://www.w3.org/2000/svg" fill="none" viewBox="0 0 24 24"><g id="ID_PLACEHOLDER_0"><path id="ID_PLACEHOLDER_1" fill="transparent" d="M11 21L16.5 11L22 21H11Z"></path><path id="ID_PLACEHOLDER_2" fill="transparent" d="M11 21H2L11 5L15.4494 12.9101L11 21Z"></path><path id="ID_PLACEHOLDER_3" stroke="currentColor" d="M11 21H2L7.0625 12M11 21L13.75 16L15.4494 12.9101L14.9375 12M11 21V12M7.0625 12L11 5L14.9375 12M7.0625 12H11M14.9375 12H11" style="stroke-width:var(--ng-icon__stroke-width, 2)"></path><path id="ID_PLACEHOLDER_4" stroke="currentColor" d="M13.75 16L11 21H16.5M13.75 16H16.5M13.75 16L16.5 11L19.25 16M19.25 16L22 21H16.5M19.25 16H16.5M16.5 16V21" style="stroke-width:var(--ng-icon__stroke-width, 2)"></path></g></svg>