<svg xmlns="http://www.w3.org/2000/svg" fill="none" viewBox="0 0 24 24"><g id="ID_PLACEHOLDER_0"><path id="ID_PLACEHOLDER_1" fill="transparent" d="M16 7.5C16 9.98528 13.9853 12 11.5 12C9.01472 12 7 9.98528 7 7.5C7 5.01472 9.01472 3 11.5 3C13.9853 3 16 5.01472 16 7.5Z"></path><path id="ID_PLACEHOLDER_2" fill="transparent" d="M22.25 14.5H15.75V22.0039L19.0035 20.0039L22.25 22.0039V14.5Z"></path><path id="ID_PLACEHOLDER_3" stroke="currentColor" d="M11.75 15H8C5.23858 15 3 17.2386 3 20V21H11.75M16 7.5C16 9.98528 13.9853 12 11.5 12C9.01472 12 7 9.98528 7 7.5C7 5.01472 9.01472 3 11.5 3C13.9853 3 16 5.01472 16 7.5Z" stroke-linecap="square" style="stroke-width:var(--ng-icon__stroke-width, 2)"></path><path id="ID_PLACEHOLDER_4" stroke="currentColor" d="M22.25 14.5H15.75V22.0039L19.0035 20.0039L22.25 22.0039V14.5Z" style="stroke-width:var(--ng-icon__stroke-width, 2)"></path></g></svg>