<svg xmlns="http://www.w3.org/2000/svg" fill="none" viewBox="0 0 24 24"><g id="ID_PLACEHOLDER_0"><path id="ID_PLACEHOLDER_1" fill="transparent" d="M22 12C22 17.5229 17.5228 22.0001 12 22.0001C6.47715 22.0001 2 17.5229 2 12C2 6.47717 6.47715 2 12 2C17.5228 2 22 6.47717 22 12Z"></path><path id="ID_PLACEHOLDER_2" fill="transparent" d="M15 12C15 13.6569 13.6569 15 12 15C10.3431 15 9 13.6569 9 12C9 10.3431 10.3431 9 12 9C13.6569 9 15 10.3431 15 12Z"></path><path id="ID_PLACEHOLDER_3" stroke="currentColor" d="M22 12C22 17.5229 17.5228 22.0001 12 22.0001C6.47715 22.0001 2 17.5229 2 12C2 6.47717 6.47715 2 12 2C17.5228 2 22 6.47717 22 12Z" stroke-linecap="square" style="stroke-width:var(--ng-icon__stroke-width, 2)"></path><path id="ID_PLACEHOLDER_4" stroke="currentColor" d="M12 5C15.866 5 19 8.13401 19 12M15 12C15 13.6569 13.6569 15 12 15C10.3431 15 9 13.6569 9 12C9 10.3431 10.3431 9 12 9C13.6569 9 15 10.3431 15 12Z" stroke-linecap="square" style="stroke-width:var(--ng-icon__stroke-width, 2)"></path></g></svg>