<svg xmlns="http://www.w3.org/2000/svg" fill="none" viewBox="0 0 24 24"><g id="ID_PLACEHOLDER_0"><path id="ID_PLACEHOLDER_1" fill="transparent" d="M4 22H20V14H4V22Z"></path><path id="ID_PLACEHOLDER_2" fill="transparent" d="M20 2H4V14H20V2Z"></path><path id="ID_PLACEHOLDER_3" stroke="currentColor" d="M8 10V14M12 6V14M16 8V14M13 18C13 18.5523 12.5523 19 12 19C11.4477 19 11 18.5523 11 18C11 17.4477 11.4477 17 12 17C12.5523 17 13 17.4477 13 18Z" stroke-linecap="square" style="stroke-width:var(--ng-icon__stroke-width, 2)"></path><path id="ID_PLACEHOLDER_4" stroke="currentColor" d="M4 14V22H20V14M4 14H20M4 14V2H20V14" style="stroke-width:var(--ng-icon__stroke-width, 2)"></path></g></svg>