<svg xmlns="http://www.w3.org/2000/svg" fill="none" viewBox="0 0 24 24"><g id="ID_PLACEHOLDER_0"><path id="ID_PLACEHOLDER_1" fill="transparent" d="M17 10V13H21V21H3V13H7V10L12 6.5L17 10Z"></path><path id="ID_PLACEHOLDER_2" fill="transparent" d="M14 21V16C14 14.8954 13.1046 14 12 14C10.8954 14 10 14.8954 10 16V21H14Z"></path><path id="ID_PLACEHOLDER_3" stroke="currentColor" d="M14 21V16C14 14.8954 13.1046 14 12 14C10.8954 14 10 14.8954 10 16V21H14Z" stroke-linecap="square" style="stroke-width:var(--ng-icon__stroke-width, 2)"></path><path id="ID_PLACEHOLDER_4" stroke="currentColor" d="M17 13H21V21H17M17 13V21M17 13V10L12 6.5M17 21H7M12 6.5L7 10V13M12 6.5V4M7 13H3V21H7M7 13V21M12 2V4M12 4H14M12 4H10" stroke-linecap="square" style="stroke-width:var(--ng-icon__stroke-width, 2)"></path></g></svg>