<svg xmlns="http://www.w3.org/2000/svg" fill="none" viewBox="0 0 24 24"><g id="ID_PLACEHOLDER_0"><path id="ID_PLACEHOLDER_1" fill="transparent" d="M22 10.333V19.9997L2 19.9997L2 10.333L22 10.333Z"></path><g id="ID_PLACEHOLDER_2"><path fill="transparent" d="M20.8241 10.3333L19.0005 5L3.35349 10.3333L20.8241 10.3333Z"></path><path fill="transparent" d="M14.1461 1.43164L2.99902 10.3359L3.35349 10.3333L17.1429 5.63318L14.1461 1.43164Z"></path></g><path id="ID_PLACEHOLDER_3" stroke="currentColor" d="M3.35389 10.3333L20.8245 10.3333L19.0009 5L3.35389 10.3333ZM3.35389 10.3333L17.1433 5.63318L14.1465 1.43164L2.99942 10.3359M3.35389 10.3333L2.99942 10.3359M2.99942 10.3359H2.5" style="stroke-width:var(--ng-icon__stroke-width, 2)"></path><g id="ID_PLACEHOLDER_4"><path stroke="currentColor" d="M6.28516 15.1641H6.28906V15.168H6.28516V15.1641Z" stroke-linecap="square" style="stroke-width:var(--ng-icon__stroke-width, 2)"></path><path stroke="currentColor" d="M22 10.333V19.9997L2 19.9997L2 10.333L22 10.333Z" stroke-linecap="square" style="stroke-width:var(--ng-icon__stroke-width, 2)"></path></g></g></svg>