<svg xmlns="http://www.w3.org/2000/svg" fill="none" viewBox="0 0 24 24"><g id="ID_PLACEHOLDER_0"><path id="ID_PLACEHOLDER_1" fill="transparent" d="M22 7V21C22 21 7.10211 21 2 21L2 7L22 7Z"></path><path id="ID_PLACEHOLDER_2" fill="transparent" d="M12 14C12 15.6569 10.6569 17 9 17C7.34315 17 6 15.6569 6 14C6 12.3431 7.34315 11 9 11C10.6569 11 12 12.3431 12 14Z"></path><path id="ID_PLACEHOLDER_3" stroke="currentColor" d="M12 2L2 7V21C7.10211 21 22 21 22 21V7H2.8" stroke-linecap="square" style="stroke-width:var(--ng-icon__stroke-width, 2)"></path><path id="ID_PLACEHOLDER_4" stroke="currentColor" d="M16 12H18M16 16H18M12 14C12 15.6569 10.6569 17 9 17C7.34315 17 6 15.6569 6 14C6 12.3431 7.34315 11 9 11C10.6569 11 12 12.3431 12 14Z" stroke-linecap="square" style="stroke-width:var(--ng-icon__stroke-width, 2)"></path></g></svg>