<svg xmlns="http://www.w3.org/2000/svg" fill="none" viewBox="0 0 24 24"><g id="ID_PLACEHOLDER_0"><path id="ID_PLACEHOLDER_1" fill="transparent" d="M12 22C17.5228 22 22 17.5228 22 12C22 6.47715 17.5228 2 12 2C6.47715 2 2 6.47715 2 12C2 14.6624 3.04042 17.0817 4.73686 18.8737L3 22H12Z" fill-rule="evenodd" clip-rule="evenodd"></path><path id="ID_PLACEHOLDER_2" stroke="currentColor" d="M12 22C17.5228 22 22 17.5228 22 12C22 6.47715 17.5228 2 12 2C6.47715 2 2 6.47715 2 12C2 14.6624 3.04042 17.0817 4.73686 18.8737L3 22H12Z" fill-rule="evenodd" stroke-linecap="square" clip-rule="evenodd" style="stroke-width:var(--ng-icon__stroke-width, 2)"></path><path id="ID_PLACEHOLDER_3" stroke="currentColor" d="M12 7.5V13M12 16.5H12.0039V16.5039H12V16.5Z" stroke-linecap="square" style="stroke-width:var(--ng-icon__stroke-width, 2)"></path></g></svg>