<svg xmlns="http://www.w3.org/2000/svg" fill="none" viewBox="0 0 24 24"><g id="ID_PLACEHOLDER_0"><path id="ID_PLACEHOLDER_1" stroke="currentColor" d="M4 5H4.5C5.05228 5 5.5 5.44772 5.5 6L5.5 15M5.5 15H4M5.5 15H7M10 5H13C13.5523 5 14 5.44772 14 6V9C14 9.55228 13.5523 10 13 10H11C10.4477 10 10 10.4477 10 11V15H14M17 15H20C20.5523 15 21 14.5523 21 14V10M17 5H20C20.5523 5 21 5.44772 21 6V10M21 10H17.5" stroke-linecap="square" style="stroke-width:var(--ng-icon__stroke-width, 2)"></path><path id="ID_PLACEHOLDER_2" stroke="currentColor" d="M21 19H4" stroke-linecap="square" style="stroke-width:var(--ng-icon__stroke-width, 2)"></path></g></svg>