<svg xmlns="http://www.w3.org/2000/svg" fill="none" viewBox="0 0 24 24"><g id="ID_PLACEHOLDER_0"><path id="ID_PLACEHOLDER_1" fill="transparent" d="M12 2C6.47715 2 2 6.47715 2 12C2 17.5228 6.47715 22 12 22C17.5228 22 22 17.5228 22 12C22 6.47715 17.5228 2 12 2Z"></path><path id="ID_PLACEHOLDER_2" fill="transparent" d="M13 5.5L12.5 5.5L8 13.5L11 13.5L11 18.5L11.5 18.5L16 10.5L13 10.5L13 5.5Z" fill-rule="evenodd" clip-rule="evenodd"></path><path id="ID_PLACEHOLDER_3" stroke="currentColor" d="M12 2C6.47715 2 2 6.47715 2 12C2 17.5228 6.47715 22 12 22C17.5228 22 22 17.5228 22 12C22 6.47715 17.5228 2 12 2Z" stroke-linecap="square" style="stroke-width:var(--ng-icon__stroke-width, 2)"></path><path id="ID_PLACEHOLDER_4" stroke="currentColor" d="M13 5.5L12.5 5.5L8 13.5L11 13.5L11 18.5L11.5 18.5L16 10.5L13 10.5L13 5.5Z" fill-rule="evenodd" stroke-linecap="square" clip-rule="evenodd" style="stroke-width:var(--ng-icon__stroke-width, 2)"></path></g></svg>