<svg xmlns="http://www.w3.org/2000/svg" fill="none" viewBox="0 0 24 24"><g id="ID_PLACEHOLDER_0"><path id="ID_PLACEHOLDER_1" fill="transparent" d="M21 17.25C21 19.3211 19.3211 21 17.25 21C15.1789 21 13.5 19.3211 13.5 17.25C13.5 15.1789 15.1789 13.5 17.25 13.5C19.3211 13.5 21 15.1789 21 17.25Z"></path><path id="ID_PLACEHOLDER_2" stroke="currentColor" d="M20 10.5V7L15 2H4V22H11.5M14 2V8H20" stroke-linecap="square" style="stroke-width:var(--ng-icon__stroke-width, 2)"></path><path id="ID_PLACEHOLDER_3" stroke="currentColor" d="M19.9979 20L21.5 21.5M21 17.25C21 19.3211 19.3211 21 17.25 21C15.1789 21 13.5 19.3211 13.5 17.25C13.5 15.1789 15.1789 13.5 17.25 13.5C19.3211 13.5 21 15.1789 21 17.25Z" stroke-linecap="square" style="stroke-width:var(--ng-icon__stroke-width, 2)"></path></g></svg>