<svg xmlns="http://www.w3.org/2000/svg" fill="none" viewBox="0 0 24 24"><g id="ID_PLACEHOLDER_0"><path id="ID_PLACEHOLDER_1" fill="transparent" d="M16 9V3H8V9H16Z"></path><g id="ID_PLACEHOLDER_2"><path fill="transparent" d="M6 12V9H10V22H3V18H4V15H5V12H6Z"></path><path fill="transparent" d="M18 12V9H14V22H21V18H20V15H19V12H18Z"></path></g><path id="ID_PLACEHOLDER_3" stroke="currentColor" d="M12 5.99805H12.0039V6.00195H12V5.99805Z" stroke-linecap="square" style="stroke-width:var(--ng-icon__stroke-width, 2)"></path><path id="ID_PLACEHOLDER_4" stroke="currentColor" d="M16 3V9M16 3H8M16 3H17M8 3V9M8 3H7M16 9H18V12H19V15H20V18H21V22H14M16 9C15.1506 9 14 9 14 9M8 9H6V12H5V15H4V18H3V22H10M8 9C8.81054 9 10 9 10 9M10 9H14M10 9V12V15V18V22M10 22H14M14 22V18V15V12V9" stroke-linecap="square" style="stroke-width:var(--ng-icon__stroke-width, 2)"></path></g></svg>