<svg xmlns="http://www.w3.org/2000/svg" fill="none" viewBox="0 0 24 24"><g id="ID_PLACEHOLDER_0"><g id="ID_PLACEHOLDER_1"><path fill="transparent" d="M17 21H22V15H17V21Z"></path><path fill="transparent" d="M2 21H7V15H2V21Z"></path></g><path id="ID_PLACEHOLDER_2" fill="transparent" d="M17 5H7V21H17V5Z"></path><path id="ID_PLACEHOLDER_3" stroke="currentColor" d="M22 15V21H17V15H22ZM22 15V14M2 15V21H7V15H2ZM2 15V14M12 14V21M10 8.99805H10.0039V9.00195H10V8.99805ZM14 8.99805H14.0039V9.00195H14V8.99805Z" stroke-linecap="square" style="stroke-width:var(--ng-icon__stroke-width, 2)"></path><path id="ID_PLACEHOLDER_4" stroke="currentColor" d="M6 3V5H7M10 3V5M10 5H14M10 5H7M14 3V5M14 5H17M18 3V5H17M7 5V21H17V5" stroke-linecap="square" style="stroke-width:var(--ng-icon__stroke-width, 2)"></path></g></svg>