<svg xmlns="http://www.w3.org/2000/svg" fill="none" viewBox="0 0 24 24"><g id="ID_PLACEHOLDER_0"><path id="ID_PLACEHOLDER_1" fill="transparent" d="M16 14C16 17.3137 13.3137 20 10 20C6.68629 20 4 17.3137 4 14C4 10.6863 6.68629 8 10 8C13.3137 8 16 10.6863 16 14Z"></path><path id="ID_PLACEHOLDER_2" stroke="currentColor" d="M20 9.5V4H14.5M14.75 9.25L19.5 4.5M16 14C16 17.3137 13.3137 20 10 20C6.68629 20 4 17.3137 4 14C4 10.6863 6.68629 8 10 8C13.3137 8 16 10.6863 16 14Z" stroke-linecap="square" style="stroke-width:var(--ng-icon__stroke-width, 2)"></path></g></svg>