<svg xmlns="http://www.w3.org/2000/svg" fill="none" viewBox="0 0 24 24"><g id="ID_PLACEHOLDER_0"><g id="ID_PLACEHOLDER_1"><path fill="transparent" d="M19 21H5V19C5 15.134 8.13401 12 12 12C15.866 12 19 15.134 19 19V21Z"></path><path fill="transparent" d="M5 3H19V5C19 8.86599 15.866 12 12 12C8.13401 12 5 8.86599 5 5V3Z"></path></g><path id="ID_PLACEHOLDER_2" stroke="currentColor" d="M12 12C15.866 12 19 15.134 19 19V21H5V19C5 15.134 8.13401 12 12 12ZM12 12C8.13401 12 5 8.86599 5 5V3H19V5C19 8.86599 15.866 12 12 12Z" style="stroke-width:var(--ng-icon__stroke-width, 2)"></path></g></svg>