<svg xmlns="http://www.w3.org/2000/svg" fill="none" viewBox="0 0 24 24"><g id="ID_PLACEHOLDER_0"><path id="ID_PLACEHOLDER_1" fill="transparent" d="M4 22H20V8H14V2H4V22Z"></path><path id="ID_PLACEHOLDER_2" stroke="currentColor" d="M14 2V8H20M14 2H15L20 7V8M14 2H4V22H20V8" style="stroke-width:var(--ng-icon__stroke-width, 2)"></path><g id="ID_PLACEHOLDER_3"><path stroke="currentColor" d="M8 6H8.00391V6.00391H8V6Z" style="stroke-width:var(--ng-icon__stroke-width, 2)"></path><path stroke="currentColor" d="M10 4H10.0039V4.00391H10V4Z" style="stroke-width:var(--ng-icon__stroke-width, 2)"></path><path stroke="currentColor" d="M10 8H10.0039V8.00391H10V8Z" style="stroke-width:var(--ng-icon__stroke-width, 2)"></path><path stroke="currentColor" d="M8 10H8.00391V10.0039H8V10Z" style="stroke-width:var(--ng-icon__stroke-width, 2)"></path><path stroke="currentColor" d="M8 14H8.00391V14.0039H8V14Z" style="stroke-width:var(--ng-icon__stroke-width, 2)"></path><path stroke="currentColor" d="M10 12H10.0039V12.0039H10V12Z" style="stroke-width:var(--ng-icon__stroke-width, 2)"></path></g></g></svg>