<svg xmlns="http://www.w3.org/2000/svg" fill="none" viewBox="0 0 24 24"><g id="ID_PLACEHOLDER_0"><path id="ID_PLACEHOLDER_1" fill="transparent" d="M3 3H21C21 9 21 15 21 21H3V3Z"></path><g id="ID_PLACEHOLDER_2"><path fill="transparent" d="M15 14H9V21H15V14Z"></path><path fill="transparent" d="M3 6C3 7.65685 4.34315 9 6 9C7.65685 9 9 7.65685 9 6C9 7.65685 10.3431 9 12 9C13.6569 9 15 7.65685 15 6C15 7.65685 16.3431 9 18 9C19.6569 9 21 7.65686 21 6V3H3V6Z"></path></g><g id="ID_PLACEHOLDER_3"><path stroke="currentColor" d="M15 14H9V21H15V14Z" style="stroke-width:var(--ng-icon__stroke-width, 2)"></path><path stroke="currentColor" d="M3 6C3 7.65685 4.34315 9 6 9C7.65685 9 9 7.65685 9 6C9 7.65685 10.3431 9 12 9C13.6569 9 15 7.65685 15 6C15 7.65685 16.3431 9 18 9C19.6569 9 21 7.65685 21 6V3H3V6Z" style="stroke-width:var(--ng-icon__stroke-width, 2)"></path></g><path id="ID_PLACEHOLDER_4" stroke="currentColor" d="M3 3H21C21 9 21 15 21 21H3V3Z" style="stroke-width:var(--ng-icon__stroke-width, 2)"></path></g></svg>