<svg xmlns="http://www.w3.org/2000/svg" fill="none" viewBox="0 0 24 24"><g id="ID_PLACEHOLDER_0"><g id="ID_PLACEHOLDER_1"><path fill="transparent" d="M3 3H10V10H3V3Z"></path><path fill="transparent" d="M14 14H21V21H14V14Z"></path><path fill="transparent" d="M3 14H10V21H3V14Z"></path></g><path id="ID_PLACEHOLDER_2" fill="transparent" d="M21.5 6.5C21.5 8.70914 19.7091 10.5 17.5 10.5C15.2909 10.5 13.5 8.70914 13.5 6.5C13.5 4.29086 15.2909 2.5 17.5 2.5C19.7091 2.5 21.5 4.29086 21.5 6.5Z"></path><g id="ID_PLACEHOLDER_3"><path stroke="currentColor" d="M3 3H10V10H3V3Z" style="stroke-width:var(--ng-icon__stroke-width, 2)"></path><path stroke="currentColor" d="M14 14H21V21H14V14Z" style="stroke-width:var(--ng-icon__stroke-width, 2)"></path><path stroke="currentColor" d="M3 14H10V21H3V14Z" style="stroke-width:var(--ng-icon__stroke-width, 2)"></path></g><path id="ID_PLACEHOLDER_4" stroke="currentColor" d="M21.5 6.5C21.5 8.70914 19.7091 10.5 17.5 10.5C15.2909 10.5 13.5 8.70914 13.5 6.5C13.5 4.29086 15.2909 2.5 17.5 2.5C19.7091 2.5 21.5 4.29086 21.5 6.5Z" style="stroke-width:var(--ng-icon__stroke-width, 2)"></path></g></svg>