<svg xmlns="http://www.w3.org/2000/svg" fill="none" viewBox="0 0 24 24"><g id="ID_PLACEHOLDER_0"><path id="ID_PLACEHOLDER_1" fill="transparent" d="M4 11H20V21H4V11Z"></path><path id="ID_PLACEHOLDER_2" fill="transparent" d="M4 21H20V16H18L15 17L12 16L9 17L6 16H4V21Z"></path><path id="ID_PLACEHOLDER_3" stroke="currentColor" d="M8 6V11M12 6V11M16 6V11M7.99805 2.99805H8.00195V3.00195H7.99805V2.99805ZM11.998 2.99805H12.002V3.00195H11.998V2.99805ZM15.998 2.99805H16.002V3.00195H15.998V2.99805Z" stroke-linecap="square" style="stroke-width:var(--ng-icon__stroke-width, 2)"></path><path id="ID_PLACEHOLDER_4" stroke="currentColor" d="M2 21H22M4 16H6L9 17L12 16L15 17L18 16H20M4 11H20V21H4V11Z" stroke-linecap="square" style="stroke-width:var(--ng-icon__stroke-width, 2)"></path></g></svg>