<svg xmlns="http://www.w3.org/2000/svg" fill="none" viewBox="0 0 24 24"><g id="ID_PLACEHOLDER_0"><path id="ID_PLACEHOLDER_1" fill="transparent" d="M15.5 3H8.5L7 6H2V20H22V6H17L15.5 3Z"></path><path id="ID_PLACEHOLDER_2" fill="transparent" d="M16 12.5C16 14.7091 14.2091 16.5 12 16.5C9.79086 16.5 8 14.7091 8 12.5C8 10.2909 9.79086 8.5 12 8.5C14.2091 8.5 16 10.2909 16 12.5Z"></path><path id="ID_PLACEHOLDER_3" stroke="currentColor" d="M15.5 3H8.5L7 6H2V20H22V6H17L15.5 3Z" style="stroke-width:var(--ng-icon__stroke-width, 2)"></path><path id="ID_PLACEHOLDER_4" stroke="currentColor" d="M16 12.5C16 14.7091 14.2091 16.5 12 16.5C9.79086 16.5 8 14.7091 8 12.5C8 10.2909 9.79086 8.5 12 8.5C14.2091 8.5 16 10.2909 16 12.5Z" style="stroke-width:var(--ng-icon__stroke-width, 2)"></path></g></svg>