<svg xmlns="http://www.w3.org/2000/svg" fill="none" viewBox="0 0 24 24"><g id="ID_PLACEHOLDER_0"><path id="ID_PLACEHOLDER_1" fill="transparent" d="M8 10V3.6L12 2L16 3.6V10C16 15 18 22 18 22H14L13 18H11L10 22H6C6 22 8 15 8 10Z"></path><path id="ID_PLACEHOLDER_2" stroke="currentColor" d="M8 4.1V10C8 15 6 22 6 22H10L11 18H13L14 22H18C18 22 16 15 16 10V4.1M6 11H18M7 4L12 2L17 4" stroke-linecap="square" style="stroke-width:var(--ng-icon__stroke-width, 2)"></path><path id="ID_PLACEHOLDER_3" stroke="currentColor" d="M12 6.99805H12.0039V7.00195H12V6.99805Z" stroke-linecap="square" style="stroke-width:var(--ng-icon__stroke-width, 2)"></path></g></svg>