<svg xmlns="http://www.w3.org/2000/svg" fill="none" viewBox="0 0 24 24"><g id="ID_PLACEHOLDER_0"><path id="ID_PLACEHOLDER_1" fill="transparent" d="M1 5L0.999999 19L16 19L16 5L1 5Z"></path><path id="ID_PLACEHOLDER_2" fill="transparent" d="M23 6L16 10.2L16 14L23 18L23 6Z"></path><g id="ID_PLACEHOLDER_3"><path stroke="currentColor" d="M23 6L16 10.2V14L23 18V6Z" stroke-linecap="square" style="stroke-width:var(--ng-icon__stroke-width, 2)"></path><path stroke="currentColor" d="M1 5L1 19L16 19V5L1 5Z" stroke-linecap="square" style="stroke-width:var(--ng-icon__stroke-width, 2)"></path></g><path id="ID_PLACEHOLDER_4" stroke="currentColor" d="M11.5 8L9.5 8V13M9.5 14C9.5 15.1046 8.60457 16 7.5 16C6.39543 16 5.5 15.1046 5.5 14C5.5 12.8954 6.39543 12 7.5 12C8.60457 12 9.5 12.8954 9.5 14Z" stroke-linecap="square" style="stroke-width:var(--ng-icon__stroke-width, 2)"></path></g></svg>