<svg xmlns="http://www.w3.org/2000/svg" fill="none" viewBox="0 0 24 24"><g id="ID_PLACEHOLDER_0"><path id="ID_PLACEHOLDER_1" fill="transparent" d="M18.75 22.5C18.75 22.5 22.5 20.0035 22.5 16.75C22.5 14.6789 20.8211 13 18.75 13C16.6789 13 15 14.6789 15 16.75C15 20.0035 18.75 22.5 18.75 22.5Z"></path><path id="ID_PLACEHOLDER_2" stroke="currentColor" d="M8 6V4H4V22H13M8 6H16M8 6V2H16V6M16 6V4H20V9.5" stroke-linecap="square" style="stroke-width:var(--ng-icon__stroke-width, 2)"></path><path id="ID_PLACEHOLDER_3" stroke="currentColor" d="M18.5 17H19M22.5 16.75C22.5 20.0035 18.75 22.5 18.75 22.5C18.75 22.5 15 20.0035 15 16.75C15 14.6789 16.6789 13 18.75 13C20.8211 13 22.5 14.6789 22.5 16.75Z" stroke-linecap="square" style="stroke-width:var(--ng-icon__stroke-width, 2)"></path></g></svg>