<svg xmlns="http://www.w3.org/2000/svg" fill="none" viewBox="0 0 24 24"><g id="ID_PLACEHOLDER_0"><path id="ID_PLACEHOLDER_1" fill="transparent" d="M16 6H19V10H20V21H4V10H5V6H8V3H16V6Z"></path><path id="ID_PLACEHOLDER_2" fill="transparent" d="M9 15V21H15V15H9Z"></path><path id="ID_PLACEHOLDER_3" stroke="currentColor" d="M9 15V21H15V15H9Z" stroke-linecap="square" style="stroke-width:var(--ng-icon__stroke-width, 2)"></path><path id="ID_PLACEHOLDER_4" stroke="currentColor" d="M16 6V3H8V6M16 6H19V10M16 6H8M8 6H5V10M19 10H5M19 10H20M5 10H4M4 10V21M4 10H3M4 21H3M4 21H20M20 10V21M20 10H21M20 21H21" stroke-linecap="square" style="stroke-width:var(--ng-icon__stroke-width, 2)"></path></g></svg>