<svg xmlns="http://www.w3.org/2000/svg" fill="none" viewBox="0 0 24 24"><g id="ID_PLACEHOLDER_0"><path id="ID_PLACEHOLDER_1" fill="transparent" d="M21.75 16.75C21.75 20.0035 18 22.5 18 22.5C18 22.5 14.25 20.0035 14.25 16.75C14.25 14.6789 15.9289 13 18 13C20.0711 13 21.75 14.6789 21.75 16.75Z"></path><path id="ID_PLACEHOLDER_2" stroke="currentColor" d="M15 6.5L9 3L3 6.5V20L9 17.5M15 6.5L21 4V10M15 6.5V10M9 17.5V3.5M9 17.5L10.5 18.375" stroke-linecap="square" style="stroke-width:var(--ng-icon__stroke-width, 2)"></path><path id="ID_PLACEHOLDER_3" stroke="currentColor" d="M17.75 17H18.25M21.75 16.75C21.75 20.0035 18 22.5 18 22.5C18 22.5 14.25 20.0035 14.25 16.75C14.25 14.6789 15.9289 13 18 13C20.0711 13 21.75 14.6789 21.75 16.75Z" stroke-linecap="square" style="stroke-width:var(--ng-icon__stroke-width, 2)"></path></g></svg>