<svg xmlns="http://www.w3.org/2000/svg" fill="none" viewBox="0 0 24 24"><g id="ID_PLACEHOLDER_0"><path id="ID_PLACEHOLDER_1" fill="transparent" d="M4.92893 19.0711C1.02369 15.1659 1.02369 8.83424 4.92893 4.92899C8.83417 1.02375 15.1658 1.02375 19.0711 4.92899C22.9763 8.83424 22.9763 15.1659 19.0711 19.0711C15.1658 22.9764 8.83418 22.9764 4.92893 19.0711Z"></path><path id="ID_PLACEHOLDER_2" fill="transparent" d="M7.40039 11.4928L15.7017 8.29999L12.5089 16.6012L11.1581 12.8436L7.40039 11.4928Z"></path><path id="ID_PLACEHOLDER_3" stroke="currentColor" d="M4.92893 19.0711C1.02369 15.1659 1.02369 8.83424 4.92893 4.92899C8.83417 1.02375 15.1658 1.02375 19.0711 4.92899C22.9763 8.83424 22.9763 15.1659 19.0711 19.0711C15.1658 22.9764 8.83418 22.9764 4.92893 19.0711Z" stroke-linecap="square" style="stroke-width:var(--ng-icon__stroke-width, 2)"></path><path id="ID_PLACEHOLDER_4" stroke="currentColor" d="M7.40039 11.4928L15.7017 8.29999L12.5089 16.6012L11.1581 12.8436L7.40039 11.4928Z" stroke-linecap="square" style="stroke-width:var(--ng-icon__stroke-width, 2)"></path></g></svg>