<svg xmlns="http://www.w3.org/2000/svg" fill="none" viewBox="0 0 24 24"><g id="ID_PLACEHOLDER_0"><path id="ID_PLACEHOLDER_1" fill="transparent" d="M3 21L21 21V10L3 10L3 21Z"></path><path id="ID_PLACEHOLDER_2" fill="transparent" d="M21 10V5H3V10H21Z"></path><path id="ID_PLACEHOLDER_3" stroke="currentColor" d="M21 10V21H3V10M21 10H3M21 10V5H3V10M7 5V2M17 5V2" stroke-linecap="square" style="stroke-width:var(--ng-icon__stroke-width, 2)"></path><g id="ID_PLACEHOLDER_4"><path stroke="currentColor" d="M8 14H8.00391V14.0039H8V14Z" stroke-linecap="square" style="stroke-width:var(--ng-icon__stroke-width, 2)"></path><path stroke="currentColor" d="M12 14H12.0039V14.0039H12V14Z" stroke-linecap="square" style="stroke-width:var(--ng-icon__stroke-width, 2)"></path><path stroke="currentColor" d="M16 14H16.0039V14.0039H16V14Z" stroke-linecap="square" style="stroke-width:var(--ng-icon__stroke-width, 2)"></path><path stroke="currentColor" d="M16 17H16.0039V17.0039H16V17Z" stroke-linecap="square" style="stroke-width:var(--ng-icon__stroke-width, 2)"></path><path stroke="currentColor" d="M8 17H8.00391V17.0039H8V17Z" stroke-linecap="square" style="stroke-width:var(--ng-icon__stroke-width, 2)"></path><path stroke="currentColor" d="M12 17H12.0039V17.0039H12V17Z" stroke-linecap="square" style="stroke-width:var(--ng-icon__stroke-width, 2)"></path></g></g></svg>