<svg xmlns="http://www.w3.org/2000/svg" fill="none" viewBox="0 0 24 24"><g id="ID_PLACEHOLDER_0"><path id="ID_PLACEHOLDER_1" fill="transparent" d="M12 9C14.7614 9 17 11.2386 17 14V21H7V14C7 11.2386 9.23858 9 12 9Z"></path><g id="ID_PLACEHOLDER_2"><path fill="transparent" d="M21 21V3H15V10C16.2142 10.9122 17 12.3644 17 14V21H21Z"></path><path fill="transparent" d="M3 21H7V14C7 12.3643 7.78565 10.9122 9 10V3H3V21Z"></path></g><path id="ID_PLACEHOLDER_3" stroke="currentColor" d="M12 20.9999V18.3428M3 21H7V14C7 12.3643 7.78565 10.9122 9 10V3H3V21ZM21 3V21H17V14C17 12.3644 16.2142 10.9122 15 10V3H21Z" stroke-linecap="square" style="stroke-width:var(--ng-icon__stroke-width, 2)"></path><path id="ID_PLACEHOLDER_4" stroke="currentColor" d="M17 14.8V21H7V14.8M12 9C14.7614 9 17 11.2386 17 14H7C7 11.2386 9.23858 9 12 9ZM12 9V8" stroke-linecap="square" style="stroke-width:var(--ng-icon__stroke-width, 2)"></path></g></svg>