<svg xmlns="http://www.w3.org/2000/svg" fill="none" viewBox="0 0 24 24"><g id="ID_PLACEHOLDER_0"><path id="ID_PLACEHOLDER_1" fill="transparent" d="M15.8033 15.8033C12.8744 18.7322 8.12563 18.7322 5.1967 15.8033C2.26777 12.8744 2.26777 8.12563 5.1967 5.1967C8.12563 2.26777 12.8744 2.26777 15.8033 5.1967C18.7322 8.12563 18.7322 12.8744 15.8033 15.8033Z"></path><path id="ID_PLACEHOLDER_2" stroke="currentColor" d="M15.8033 15.8033C12.8744 18.7322 8.12563 18.7322 5.1967 15.8033C2.26777 12.8744 2.26777 8.12563 5.1967 5.1967C8.12563 2.26777 12.8744 2.26777 15.8033 5.1967C18.7322 8.12563 18.7322 12.8744 15.8033 15.8033ZM15.8033 15.8033L21.1066 21.1066" stroke-linecap="square" style="stroke-width:var(--ng-icon__stroke-width, 2)"></path><path id="ID_PLACEHOLDER_3" stroke="currentColor" d="M10.5 13.5V10.5M10.5 10.5L10.5 7.5M10.5 10.5H7.5M10.5 10.5H13.5" stroke-linecap="square" style="stroke-width:var(--ng-icon__stroke-width, 2)"></path></g></svg>