<svg xmlns="http://www.w3.org/2000/svg" fill="none" viewBox="0 0 24 24"><g id="ID_PLACEHOLDER_0"><g id="ID_PLACEHOLDER_1"><path fill="transparent" d="M21 7H17V3H21V7Z"></path><path fill="transparent" d="M7 7H3L3.00001 3H7V7Z"></path><path fill="transparent" d="M21 21H17V17H21V21Z"></path><path fill="transparent" d="M7 21H3V17H7V21Z"></path></g><path id="ID_PLACEHOLDER_2" stroke="currentColor" d="M5 17V7M5 17H3V21H7V19M5 17H7V19M5 7L3 7L3.00001 3H7V5M5 7L7 7V5M7 5H17M17 5L17 7L19 7M17 5L17 3H21V7L19 7M19 7V17M19 17H17L17 19M19 17H21V21H17L17 19M17 19H7" style="stroke-width:var(--ng-icon__stroke-width, 2)"></path></g></svg>