<svg xmlns="http://www.w3.org/2000/svg" fill="none" viewBox="0 0 24 24"><g id="ID_PLACEHOLDER_0"><path id="ID_PLACEHOLDER_1" fill="transparent" d="M1 5L0.999999 19L16 19L16 5L1 5Z"></path><path id="ID_PLACEHOLDER_2" fill="transparent" d="M23 5.99805L16 10.198V13.998L23 17.998V5.99805Z"></path><g id="ID_PLACEHOLDER_3"><path stroke="currentColor" d="M23 5.99805L16 10.198L16 13.998L23 17.998V5.99805Z" stroke-linecap="square" style="stroke-width:var(--ng-icon__stroke-width, 2)"></path><path stroke="currentColor" d="M1 4.99805L1 18.998L16 18.998L16 4.99805L1 4.99805Z" stroke-linecap="square" style="stroke-width:var(--ng-icon__stroke-width, 2)"></path></g><path id="ID_PLACEHOLDER_4" stroke="currentColor" d="M10.5 9H8.5M8.5 9H7.5C6.94772 9 6.5 9.44772 6.5 10V11C6.5 11.5523 6.94772 12 7.5 12H9.5C10.0523 12 10.5 12.4477 10.5 13V14C10.5 14.5523 10.0523 15 9.5 15H8.5M8.5 9V8M8.5 15H6.5M8.5 15L8.5 16" stroke-linecap="square" style="stroke-width:var(--ng-icon__stroke-width, 2)"></path></g></svg>