<svg xmlns="http://www.w3.org/2000/svg" id="ID_PLACEHOLDER_0" viewBox="0 0 512 512"><path fill="#0d5eaf" fill-rule="evenodd" d="M0 0h512v57H0z"></path><path fill="#fff" fill-rule="evenodd" d="M0 57h512v57H0z"></path><path fill="#0d5eaf" fill-rule="evenodd" d="M0 114h512v57H0z"></path><path fill="#fff" fill-rule="evenodd" d="M0 171h512v57H0z"></path><path fill="#0d5eaf" fill-rule="evenodd" d="M0 228h512v56.9H0z"></path><path fill="#fff" fill-rule="evenodd" d="M0 284.9h512v57H0z"></path><path fill="#0d5eaf" fill-rule="evenodd" d="M0 341.9h512v57H0z"></path><path fill="#fff" fill-rule="evenodd" d="M0 398.9h512v57H0z"></path><path fill="#0d5eaf" d="M0 0h284.9v284.9H0z"></path><g fill="#fff" fill-rule="evenodd" style="stroke-width:var(--ng-icon__stroke-width, 1.3)"><path d="M114 0h57v284.9h-57z"></path><path d="M0 114h284.9v57H0z"></path></g><path fill="#0d5eaf" fill-rule="evenodd" d="M0 455h512v57H0z"></path></svg>