<?xml version="1.0" encoding="utf-8"?><svg version="1.1" id="ID_PLACEHOLDER_0" xmlns="http://www.w3.org/2000/svg" xmlns:xlink="http://www.w3.org/1999/xlink" x="0px" y="0px" viewBox="0 0 92 92" enable-background="new 0 0 92 92" xml:space="preserve" fill="currentColor"><path id="ID_PLACEHOLDER_1" d="M73,89c-3.3,0-6-2.7-6-6V9c0-3.3,2.7-6,6-6s6,2.7,6,6v74C79,86.3,76.3,89,73,89z M52,83V33.4
	c0-3.3-2.7-6-6-6s-6,2.7-6,6V83c0,3.3,2.7,6,6,6S52,86.3,52,83z M25,83V57.8c0-3.3-2.7-6-6-6s-6,2.7-6,6V83c0,3.3,2.7,6,6,6
	S25,86.3,25,83z"></path></svg>