<?xml version="1.0" encoding="utf-8"?><svg version="1.1" id="ID_PLACEHOLDER_0" xmlns="http://www.w3.org/2000/svg" xmlns:xlink="http://www.w3.org/1999/xlink" x="0px" y="0px" viewBox="0 0 24 24" style="enable-background:new 0 0 24 24;" xml:space="preserve" fill="currentColor"><g id="ID_PLACEHOLDER_1"><g><path d="M12,23L0,17l4.9-2.5L0,12l4.9-2.5L0,7l12-6l12,6l-4.9,2.5L24,12l-4.9,2.5L24,17L12,23z M4.4,17l7.7,3.9l7.6-3.9l-2.8-1.4
			L12,18l-4.9-2.5L4.4,17z M4.4,12l7.7,3.9l7.6-3.9l-2.8-1.4L12,13.1l-4.9-2.5L4.4,12z M4.4,7l7.7,3.9L19.7,7L12,3.2L4.4,7z"></path></g></g></svg>