<svg fill="none" viewBox="0 0 24 24" stroke="currentColor" stroke-linecap="round" stroke-linejoin="round" xmlns="http://www.w3.org/2000/svg" style="stroke-width:var(--ng-icon__stroke-width, 1.5)"><path d="M2.707 10.295a2.41 2.41 0 0 0 0 3.41l7.588 7.588a2.41 2.41 0 0 0 3.41 0l7.588-7.588a2.41 2.41 0 0 0 0-3.41l-7.588-7.588a2.41 2.41 0 0 0-3.41 0z"></path><path d="M12 12H8.5m0 0H7m1.5 0c0 2 1.565 4 3.75 4 1.209 0 2.126-.267 2.75-.867M8.5 12c0-2 1.25-4 3.75-4 1.209 0 2.126.267 2.75.866"></path></svg>