<svg viewBox="0 0 24 24" fill="none" xmlns="http://www.w3.org/2000/svg" stroke="currentColor"><path d="M2 22H13C17.9706 22 22 17.9706 22 13C22 8.02944 17.9706 4 13 4C8.36745 4 4.49744 7.50005 4 12" stroke-linecap="round" style="stroke-width:var(--ng-icon__stroke-width, 1.5)"></path><path d="M18.5 5.5L19.5 4.5M5.5 4.5L6.5 5.5" stroke-linecap="round" stroke-linejoin="round" style="stroke-width:var(--ng-icon__stroke-width, 1.5)"></path><path d="M16.5 9L13.5607 11.9393M13.5607 11.9393C13.2892 11.6679 12.9142 11.5 12.5 11.5C11.6716 11.5 11 12.1716 11 13C11 13.8284 11.6716 14.5 12.5 14.5C13.3284 14.5 14 13.8284 14 13C14 12.5858 13.8321 12.2108 13.5607 11.9393Z" stroke-linecap="round" style="stroke-width:var(--ng-icon__stroke-width, 1.5)"></path><path d="M12.5 3.5V2" stroke-linecap="round" stroke-linejoin="round" style="stroke-width:var(--ng-icon__stroke-width, 1.5)"></path><path d="M10.5 2H14.5" stroke-linecap="round" stroke-linejoin="round" style="stroke-width:var(--ng-icon__stroke-width, 1.5)"></path><path d="M2 15H5" stroke-linecap="round" stroke-linejoin="round" style="stroke-width:var(--ng-icon__stroke-width, 1.5)"></path><path d="M2 19H7" stroke-linecap="round" stroke-linejoin="round" style="stroke-width:var(--ng-icon__stroke-width, 1.5)"></path></svg>