<svg xmlns="http://www.w3.org/2000/svg" xmlns:xlink="http://www.w3.org/1999/xlink" viewBox="0 0 1007.922 821.827"><defs><linearGradient id="ID_PLACEHOLDER_0" x1="700.766" y1="597.024" x2="749.765" y2="597.024" gradientTransform="translate(86.603 -142.296) scale(0.867 1.307)" gradientUnits="userSpaceOnUse"><stop offset="0" stop-opacity="0.13"></stop><stop offset="0.994" stop-opacity="0"></stop></linearGradient><mask id="ID_PLACEHOLDER_1" x="317.137" y="651.827" width="170" height="205.208" maskUnits="userSpaceOnUse"><g transform="translate(-8.064 -116.521)"><rect x="367.701" y="870.953" width="85" height="85" transform="translate(766.054 -22.512) rotate(45)" style="fill:#fff"></rect></g></mask><radialGradient id="ID_PLACEHOLDER_2" cx="410.201" cy="853.349" r="85" gradientTransform="translate(715.49 -156.637) rotate(45)" gradientUnits="userSpaceOnUse"><stop offset="0.5" stop-opacity="0.13"></stop><stop offset="0.994" stop-opacity="0"></stop></radialGradient><mask id="ID_PLACEHOLDER_3" x="837.922" y="95.835" width="205.208" height="205.208" maskUnits="userSpaceOnUse"><g transform="translate(-8.064 -116.521)"><rect x="876.038" y="260.012" width="170" height="85" transform="translate(1426.685 1195.977) rotate(-135)" style="fill:#fff"></rect></g></mask><radialGradient id="ID_PLACEHOLDER_4" cx="1051.126" cy="1265.852" r="85" gradientTransform="translate(771.087 1854.394) rotate(-135)" xlink:href="#ID_PLACEHOLDER_2"></radialGradient><linearGradient id="ID_PLACEHOLDER_5" x1="1880.8" y1="34.286" x2="1929.799" y2="34.286" gradientTransform="matrix(0.867, 0, 0, -0.796, -1446.031, 767.147)" xlink:href="#ID_PLACEHOLDER_0"></linearGradient><mask id="ID_PLACEHOLDER_6" x="-35.208" y="299.482" width="205.208" height="205.208" maskUnits="userSpaceOnUse"><g transform="translate(-8.064 -116.521)"><rect x="-21.988" y="463.659" width="170" height="85" transform="translate(-339.453 192.807) rotate(-45)" style="fill:#fff"></rect></g></mask><radialGradient id="ID_PLACEHOLDER_7" cx="27.608" cy="2001.37" r="85" gradientTransform="matrix(0.707, -0.707, -0.707, -0.707, 1480.66, 1854.394)" xlink:href="#ID_PLACEHOLDER_2"></radialGradient><linearGradient id="ID_PLACEHOLDER_8" x1="308.378" y1="811.629" x2="919.318" y2="200.689" gradientTransform="translate(-178.117 582.307) rotate(-45)" gradientUnits="userSpaceOnUse"><stop offset="0" stop-color="#2987e6"></stop><stop offset="0.994" stop-color="#58c1f5"></stop></linearGradient></defs><title>Todo</title><rect x="694.422" y="269.785" width="42.5" height="736.5" transform="translate(652.71 -435.701) rotate(45)" style="fill:url(#a)"></rect><g style="mask:url(#b)"><circle cx="402.137" cy="736.827" r="85" style="fill:url(#c)"></circle></g><g style="mask:url(#d)"><circle cx="922.922" cy="216.043" r="85" style="fill:url(#e)"></circle></g><rect x="185.305" y="515.608" width="42.5" height="448.5" transform="translate(867.705 1000.439) rotate(135)" style="fill:url(#f)"></rect><g style="mask:url(#g)"><circle cx="85" cy="419.69" r="85" style="fill:url(#h)"></circle></g><rect x="164.378" y="319.982" width="288" height="576" rx="42.5" transform="translate(-347.651 279.609) rotate(-45)" style="fill:#195abd"></rect><rect x="469.848" y="74.159" width="288" height="864" rx="42.5" transform="translate(529.636 -402.327) rotate(45)" style="fill:url(#i)"></rect></svg>