<svg viewBox="0 0 191 191" fill="none" xmlns="http://www.w3.org/2000/svg"><g clip-path="url(#ID_PLACEHOLDER_1)"><path d="M191 95.5C191 148.243 148.243 191 95.5 191C42.7568 191 0 148.243 0 95.5C0 42.7568 42.7568 0 95.5 0C148.243 0 191 42.7568 191 95.5Z" fill="black"></path><mask id="ID_PLACEHOLDER_0" style="mask-type:alpha" maskUnits="userSpaceOnUse" x="0" y="0" width="191" height="191"><path d="M191 95.5C191 148.243 148.243 191 95.5 191C42.7568 191 0 148.243 0 95.5C0 42.7568 42.7568 0 95.5 0C148.243 0 191 42.7568 191 95.5Z" fill="black"></path></mask><g mask="url(#ID_PLACEHOLDER_0)"><circle cx="95" cy="100" r="49" fill="white"></circle><path d="M122 -14H144V148H122V-14Z" fill="white"></path></g></g><defs><clipPath id="ID_PLACEHOLDER_1"><rect width="191" height="191" fill="white"></rect></clipPath></defs></svg>