<svg xmlns="http://www.w3.org/2000/svg" xmlns:xlink="http://www.w3.org/1999/xlink" id="ID_PLACEHOLDER_0" viewBox="0 0 640 480"><path fill="#1eb53a" d="M0 320h640v160H0z"></path><path fill="#0099b5" d="M0 0h640v160H0z"></path><path fill="#ce1126" d="M0 153.6h640v172.8H0z"></path><path fill="#fff" d="M0 163.2h640v153.6H0z"></path><circle cx="134.4" cy="76.8" r="57.6" fill="#fff"></circle><circle cx="153.6" cy="76.8" r="57.6" fill="#0099b5"></circle><g fill="#fff" transform="translate(261.1 122.9)scale(1.92)"><g id="ID_PLACEHOLDER_1"><g id="ID_PLACEHOLDER_2"><g id="ID_PLACEHOLDER_3"><g id="ID_PLACEHOLDER_4"><path id="ID_PLACEHOLDER_5" d="M0-6-1.9-.3 1 .7"></path><use xlink:href="#ID_PLACEHOLDER_5" width="100%" height="100%" transform="scale(-1 1)"></use></g><use xlink:href="#ID_PLACEHOLDER_4" width="100%" height="100%" transform="rotate(72)"></use></g><use xlink:href="#ID_PLACEHOLDER_4" width="100%" height="100%" transform="rotate(-72)"></use><use xlink:href="#ID_PLACEHOLDER_3" width="100%" height="100%" transform="rotate(144)"></use></g><use xlink:href="#ID_PLACEHOLDER_2" width="100%" height="100%" y="-24"></use><use xlink:href="#ID_PLACEHOLDER_2" width="100%" height="100%" y="-48"></use></g><use xlink:href="#ID_PLACEHOLDER_1" width="100%" height="100%" x="24"></use><use xlink:href="#ID_PLACEHOLDER_1" width="100%" height="100%" x="48"></use><use xlink:href="#ID_PLACEHOLDER_2" width="100%" height="100%" x="-48"></use><use xlink:href="#ID_PLACEHOLDER_2" width="100%" height="100%" x="-24"></use><use xlink:href="#ID_PLACEHOLDER_2" width="100%" height="100%" x="-24" y="-24"></use></g></svg>