<svg xmlns="http://www.w3.org/2000/svg" xmlns:xlink="http://www.w3.org/1999/xlink" id="ID_PLACEHOLDER_0" x="0" y="0" version="1.1" viewBox="0 0 1024 1024" xml:space="preserve" style="enable-background:new 0 0 1024 1024"><g><linearGradient id="ID_PLACEHOLDER_1" x1="260.967" x2="919.184" y1="871.181" y2="491.16" gradientUnits="userSpaceOnUse"><stop offset="0" style="stop-color:#669abd"></stop><stop offset="1" style="stop-color:#77dbdb"></stop></linearGradient><polygon points="297.54 934.52 882.6 596.72 882.61 427.82 297.54 765.65" style="fill:url(#SVGID_1_)"></polygon><linearGradient id="ID_PLACEHOLDER_2" x1="553.505" x2="626.647" y1="617.828" y2="744.513" gradientUnits="userSpaceOnUse"><stop offset=".559" style="stop-color:#000;stop-opacity:0"></stop><stop offset="1" style="stop-color:#000"></stop></linearGradient><polygon points="297.54 934.52 882.6 596.72 882.61 427.82 297.54 765.65" style="opacity:.16;fill:url(#SVGID_2_)"></polygon></g><g><linearGradient id="ID_PLACEHOLDER_3" x1="114.663" x2="334.091" y1="744.528" y2="871.214" gradientUnits="userSpaceOnUse"><stop offset="0" style="stop-color:#6a8fad"></stop><stop offset="1" style="stop-color:#669abd"></stop></linearGradient><polygon points="151.23 681.18 151.22 850.09 297.54 934.52 297.54 765.65" style="fill:url(#SVGID_3_)"></polygon><linearGradient id="ID_PLACEHOLDER_4" x1="260.948" x2="187.806" y1="744.528" y2="871.213" gradientUnits="userSpaceOnUse"><stop offset=".559" style="stop-color:#000;stop-opacity:0"></stop><stop offset="1" style="stop-color:#000"></stop></linearGradient><polygon points="151.23 681.18 151.22 850.09 297.54 934.52 297.54 765.65" style="opacity:.16;fill:url(#SVGID_4_)"></polygon></g><g><linearGradient id="ID_PLACEHOLDER_5" x1="114.663" x2="553.503" y1="237.793" y2="491.157" gradientUnits="userSpaceOnUse"><stop offset="0" style="stop-color:#6a8fad"></stop><stop offset="1" style="stop-color:#669abd"></stop></linearGradient><polygon points="151.23 174.45 151.21 343.36 443.79 512.27 590.08 427.81" style="fill:url(#SVGID_5_)"></polygon><linearGradient id="ID_PLACEHOLDER_6" x1="370.656" x2="297.509" y1="301.128" y2="427.822" gradientUnits="userSpaceOnUse"><stop offset=".559" style="stop-color:#000;stop-opacity:0"></stop><stop offset="1" style="stop-color:#000"></stop></linearGradient><polygon points="151.23 174.45 151.21 343.36 443.79 512.27 590.08 427.81" style="opacity:.15;fill:url(#SVGID_6_)"></polygon></g><linearGradient id="ID_PLACEHOLDER_7" x1="78.091" x2="736.337" y1="554.498" y2="174.459" gradientUnits="userSpaceOnUse"><stop offset="0" style="stop-color:#ccecff"></stop><stop offset="1" style="stop-color:#9feced"></stop></linearGradient><polygon points="297.51 765.64 151.23 681.18 590.08 427.81 151.23 174.45 297.5 90 882.61 427.82" style="fill:url(#SVGID_7_)"></polygon></svg>