<svg version="1.1" xmlns="http://www.w3.org/2000/svg" xmlns:xlink="http://www.w3.org/1999/xlink" preserveAspectRatio="xMidYMid meet" viewBox="76.58987244897958 44 164.00775510204068 164"><defs><path d="M237.6 95L187.6 95L187.6 45L237.6 45L237.6 95Z" id="ID_PLACEHOLDER_0"></path><path d="M182.59 95L132.59 95L132.59 45L182.59 45L182.59 95Z" id="ID_PLACEHOLDER_1"></path><path d="M127.59 95L77.59 95L77.59 45L127.59 45L127.59 95Z" id="ID_PLACEHOLDER_2"></path><path d="M237.6 150L187.6 150L187.6 100L237.6 100L237.6 150Z" id="ID_PLACEHOLDER_3"></path><path d="M182.59 150L132.59 150L132.59 100L182.59 100L182.59 150Z" id="ID_PLACEHOLDER_4"></path><path d="M182.59 205L132.59 205L132.59 155L182.59 155L182.59 205Z" id="ID_PLACEHOLDER_5"></path><path d="M237.6 205L187.6 205L187.6 155L237.6 155L237.6 205Z" id="ID_PLACEHOLDER_6"></path><path d="M127.59 205L77.59 205L77.59 155L127.59 155L127.59 205Z" id="ID_PLACEHOLDER_7"></path></defs><g><g><use xlink:href="#ID_PLACEHOLDER_0" opacity="1" fill="#f9ad00" fill-opacity="1"></use></g><g><use xlink:href="#ID_PLACEHOLDER_1" opacity="1" fill="#f9ad00" fill-opacity="1"></use></g><g><use xlink:href="#ID_PLACEHOLDER_2" opacity="1" fill="#f9ad00" fill-opacity="1"></use></g><g><use xlink:href="#ID_PLACEHOLDER_3" opacity="1" fill="#f9ad00" fill-opacity="1"></use></g><g><use xlink:href="#ID_PLACEHOLDER_4" opacity="1" fill="#ffffff" fill-opacity="1"></use></g><g><use xlink:href="#ID_PLACEHOLDER_5" opacity="1" fill="#ffffff" fill-opacity="1"></use></g><g><use xlink:href="#ID_PLACEHOLDER_6" opacity="1" fill="#ffffff" fill-opacity="1"></use></g><g><use xlink:href="#ID_PLACEHOLDER_7" opacity="1" fill="#ffffff" fill-opacity="1"></use></g></g></svg>