<svg viewBox="0 0 32 32" xmlns="http://www.w3.org/2000/svg" fill="currentColor"><defs><linearGradient x1="50%" y1="0%" x2="50%" y2="143.239%" id="ID_PLACEHOLDER_0"><stop stop-color="#FFF" offset="0%"></stop><stop stop-color="#FFF" stop-opacity=".83" offset="3%"></stop><stop stop-color="#FFF" stop-opacity=".66" offset="7%"></stop><stop stop-color="#FFF" stop-opacity=".5" offset="11%"></stop><stop stop-color="#FFF" stop-opacity=".37" offset="15%"></stop><stop stop-color="#FFF" stop-opacity=".25" offset="19%"></stop><stop stop-color="#FFF" stop-opacity=".16" offset="25%"></stop><stop stop-color="#FFF" stop-opacity=".09" offset="30%"></stop><stop stop-color="#FFF" stop-opacity=".04" offset="37%"></stop><stop stop-color="#FFF" stop-opacity=".01" offset="47%"></stop><stop stop-color="#FFF" stop-opacity="0" offset="100%"></stop></linearGradient></defs><g fill="none"><circle cx="16" cy="16" r="16" fill="#051D2D"></circle><g transform="translate(9 6)" fill="url(#ID_PLACEHOLDER_0)"><path d="M6.993 13.986a6.993 6.993 0 116.993-6.993 7.002 7.002 0 01-6.993 6.993zM7 6.951A.049.049 0 107.049 7a.055.055 0 00-.05-.05z"></path><path d="M6.993 20.986a6.993 6.993 0 116.993-6.993 7.002 7.002 0 01-6.993 6.993zM7 13.951a.049.049 0 10.049.049.055.055 0 00-.05-.05z"></path></g></g></svg>