<svg xmlns="http://www.w3.org/2000/svg" viewBox="0 0 24 24" fill="none" stroke="currentColor" stroke-linecap="round" stroke-linejoin="round" style="stroke-width:var(--ng-icon__stroke-width, 2)"><path stroke="none" d="M0 0h24v24H0z" fill="none"></path><path d="M14 10m-7 0a7 7 0 1 0 14 0a7 7 0 1 0 -14 0"></path><path d="M21 10a3.5 3.5 0 0 0 -7 0"></path><path d="M14 10a3.5 3.5 0 0 1 -7 0"></path><path d="M14 17a3.5 3.5 0 0 0 0 -7"></path><path d="M14 3a3.5 3.5 0 0 0 0 7"></path><path d="M3 21l6 -6"></path></svg>