<svg xmlns="http://www.w3.org/2000/svg" viewBox="0 0 24 24" fill="none" stroke="currentColor" stroke-linecap="round" stroke-linejoin="round" style="stroke-width:var(--ng-icon__stroke-width, 2)"><path stroke="none" d="M0 0h24v24H0z" fill="none"></path><path d="M7 18v-11a2 2 0 0 1 2 -2h.5a.5 .5 0 0 0 .5 -.5a.5 .5 0 0 1 .5 -.5h3a.5 .5 0 0 1 .5 .5a.5 .5 0 0 0 .5 .5h.5a2 2 0 0 1 2 2v11a2 2 0 0 1 -2 2h-6a2 2 0 0 1 -2 -2"></path><path d="M10 17h4"></path><path d="M10 14h4"></path><path d="M10 11h4"></path><path d="M10 8h4"></path></svg>