<svg xmlns="http://www.w3.org/2000/svg" viewBox="0 0 24 24" fill="none" stroke="currentColor" stroke-linecap="round" stroke-linejoin="round" style="stroke-width:var(--ng-icon__stroke-width, 2)"><path stroke="none" d="M0 0h24v24H0z" fill="none"></path><path d="M15 9l-6 6"></path><path d="M10 12l2 2"></path><path d="M12 10l2 2"></path><path d="M8 21a5 5 0 0 0 -5 -5"></path><path d="M16 3c-7.18 0 -13 5.82 -13 13a5 5 0 0 0 5 5c7.18 0 13 -5.82 13 -13a5 5 0 0 0 -5 -5"></path><path d="M16 3a5 5 0 0 0 5 5"></path></svg>