<svg xmlns="http://www.w3.org/2000/svg" viewBox="0 0 24 24" fill="none" stroke="currentColor" stroke-linecap="round" stroke-linejoin="round" style="stroke-width:var(--ng-icon__stroke-width, 2)"><path stroke="none" d="M0 0h24v24H0z" fill="none"></path><path d="M12 12m-9 0a9 9 0 1 0 18 0a9 9 0 1 0 -18 0"></path><path d="M10.5 10.5c-.847 -.71 -2.132 -.658 -2.914 .116a1.928 1.928 0 0 0 0 2.768c.782 .774 2.067 .825 2.914 .116"></path><path d="M16.5 10.5c-.847 -.71 -2.132 -.658 -2.914 .116a1.928 1.928 0 0 0 0 2.768c.782 .774 2.067 .825 2.914 .116"></path></svg>