<svg xmlns="http://www.w3.org/2000/svg" viewBox="0 0 24 24" fill="none" stroke="currentColor" stroke-linecap="round" stroke-linejoin="round" style="stroke-width:var(--ng-icon__stroke-width, 2)"><path stroke="none" d="M0 0h24v24H0z" fill="none"></path><path d="M3 4m0 3a3 3 0 0 1 3 -3h12a3 3 0 0 1 3 3v2a3 3 0 0 1 -3 3h-12a3 3 0 0 1 -3 -3z"></path><path d="M15 20h-9a3 3 0 0 1 -3 -3v-2a3 3 0 0 1 3 -3h12"></path><path d="M7 8v.01"></path><path d="M7 16v.01"></path><path d="M20 15l-2 3h3l-2 3"></path></svg>