<svg xmlns="http://www.w3.org/2000/svg" viewBox="0 0 24 24" fill="none" stroke="currentColor" stroke-linecap="round" stroke-linejoin="round" style="stroke-width:var(--ng-icon__stroke-width, 2)"><path stroke="none" d="M0 0h24v24H0z" fill="none"></path><path d="M10 9m0 1.105a1.105 1.105 0 0 1 1.105 -1.105h1.79a1.105 1.105 0 0 1 1.105 1.105v9.79a1.105 1.105 0 0 1 -1.105 1.105h-1.79a1.105 1.105 0 0 1 -1.105 -1.105z"></path><path d="M17 3m0 1.105a1.105 1.105 0 0 1 1.105 -1.105h1.79a1.105 1.105 0 0 1 1.105 1.105v15.79a1.105 1.105 0 0 1 -1.105 1.105h-1.79a1.105 1.105 0 0 1 -1.105 -1.105z"></path><path d="M5 19m-2 0a2 2 0 1 0 4 0a2 2 0 1 0 -4 0"></path></svg>