<svg xmlns="http://www.w3.org/2000/svg" viewBox="0 0 24 24" fill="none" stroke="currentColor" stroke-linecap="round" stroke-linejoin="round" style="stroke-width:var(--ng-icon__stroke-width, 2)"><path stroke="none" d="M0 0h24v24H0z" fill="none"></path><path d="M5 3m0 2a2 2 0 0 1 2 -2h0a2 2 0 0 1 2 2v2a2 2 0 0 1 -2 2h0a2 2 0 0 1 -2 -2z"></path><path d="M5 15m0 2a2 2 0 0 1 2 -2h0a2 2 0 0 1 2 2v2a2 2 0 0 1 -2 2h0a2 2 0 0 1 -2 -2z"></path><path d="M15 3m0 2a2 2 0 0 1 2 -2h0a2 2 0 0 1 2 2v2a2 2 0 0 1 -2 2h0a2 2 0 0 1 -2 -2z"></path><path d="M15 15m0 2a2 2 0 0 1 2 -2h0a2 2 0 0 1 2 2v2a2 2 0 0 1 -2 2h0a2 2 0 0 1 -2 -2z"></path><path d="M9 18h6"></path><path d="M9 6h6"></path><path d="M12 6.5v-.5v12"></path></svg>